<svg width="56" height="56" viewBox="0 0 56 56" fill="none" xmlns="http://www.w3.org/2000/svg">
<g clip-path="url(#clip0_1_120)">
<path fill-rule="evenodd" clip-rule="evenodd" d="M31.5 7C31.5 6.07174 31.1313 5.1815 30.4749 4.52513C29.8185 3.86875 28.9283 3.5 28 3.5C27.0717 3.5 26.1815 3.86875 25.5251 4.52513C24.8688 5.1815 24.5 6.07174 24.5 7V30.3333C24.5 31.2616 24.8688 32.1518 25.5251 32.8082C26.1815 33.4646 27.0717 33.8333 28 33.8333C28.9283 33.8333 29.8185 33.4646 30.4749 32.8082C31.1313 32.1518 31.5 31.2616 31.5 30.3333V7ZM18.326 13.4167C18.709 13.1622 19.0382 12.8348 19.2947 12.4531C19.5511 12.0714 19.7299 11.6429 19.8208 11.1921C19.9117 10.7414 19.9129 10.2771 19.8244 9.82584C19.7359 9.37458 19.5593 8.94519 19.3048 8.56217C19.0504 8.17914 18.7229 7.85 18.3412 7.59352C17.9596 7.33703 17.5311 7.15824 17.0803 7.06735C16.6295 6.97646 16.1653 6.97524 15.714 7.06377C15.2628 7.15231 14.8334 7.32885 14.4503 7.58333C11.0813 9.81775 8.31796 12.8517 6.40718 16.4143C4.49639 19.977 3.49761 23.9573 3.5 28C3.5 41.531 14.469 52.5 28 52.5C41.531 52.5 52.5 41.531 52.5 28C52.5 19.474 48.1437 11.97 41.5497 7.58333C40.7761 7.0697 39.8302 6.88439 38.92 7.06818C38.0099 7.25196 37.21 7.78979 36.6963 8.56333C36.1827 9.33688 35.9974 10.2828 36.1812 11.193C36.365 12.1031 36.9028 12.903 37.6763 13.4167C40.809 15.4948 43.1893 18.5266 44.4646 22.063C45.7399 25.5994 45.8425 29.4525 44.7572 33.0518C43.6719 36.651 41.4564 39.8052 38.4388 42.0471C35.4211 44.2891 31.7617 45.4997 28.0023 45.4997C24.243 45.4997 20.5836 44.2891 17.5659 42.0471C14.5482 39.8052 12.3327 36.651 11.2475 33.0518C10.1622 29.4525 10.2648 25.5994 11.5401 22.063C12.8154 18.5266 15.1933 15.4948 18.326 13.4167Z" fill="#0FB268"/>
</g>
<defs>
<clipPath id="clip0_1_120">
<rect width="56" height="56" fill="white"/>
</clipPath>
</defs>
</svg>
