<svg width="64" height="52" viewBox="0 0 64 52" fill="none" xmlns="http://www.w3.org/2000/svg">
<g clip-path="url(#clip0_1_118)">
<path d="M25.6 33.6H25.598C25.598 31.982 25.732 32.727 17.093 15.449C15.328 11.92 10.274 11.913 8.506 15.449C-0.206001 32.875 0.002 32.033 0.002 33.6H0C0 38.018 5.731 41.6 12.8 41.6C19.869 41.6 25.6 38.018 25.6 33.6ZM12.8 17.6L20 32H5.6L12.8 17.6ZM63.998 33.6C63.998 31.982 64.132 32.727 55.493 15.449C53.728 11.92 48.674 11.913 46.906 15.449C38.194 32.875 38.402 32.033 38.402 33.6H38.4C38.4 38.018 44.131 41.6 51.2 41.6C58.269 41.6 64 38.018 64 33.6H63.998ZM44 32L51.2 17.6L58.4 32H44ZM52.8 44.8H35.2V15.325C37.551 14.296 39.316 12.177 39.839 9.6H52.8C53.684 9.6 54.4 8.884 54.4 8V4.8C54.4 3.916 53.684 3.2 52.8 3.2H38.364C36.904 1.268 34.609 0 32 0C29.391 0 27.096 1.268 25.636 3.2H11.2C10.316 3.2 9.6 3.916 9.6 4.8V8C9.6 8.884 10.316 9.6 11.2 9.6H24.161C24.684 12.176 26.448 14.296 28.8 15.325V44.8H11.2C10.316 44.8 9.6 45.516 9.6 46.4V49.6C9.6 50.484 10.316 51.2 11.2 51.2H52.8C53.684 51.2 54.4 50.484 54.4 49.6V46.4C54.4 45.516 53.684 44.8 52.8 44.8Z" fill="#0FB268"/>
</g>
<defs>
<clipPath id="clip0_1_118">
<rect width="64" height="51.2" fill="white"/>
</clipPath>
</defs>
</svg>
