<svg width="64" height="64" viewBox="0 0 64 64" fill="none" xmlns="http://www.w3.org/2000/svg">
<path d="M33.3333 18.4C38.08 18.4 39.84 20.6667 40 24H45.8933C45.7067 19.4133 42.9067 15.2 37.3333 13.84V8H29.3333V13.76C28.2933 13.9733 27.3333 14.32 26.4 14.72L30.4267 18.7467C31.28 18.5333 32.2667 18.4 33.3333 18.4ZM14.5867 10.4533L10.8267 14.2133L20 23.3867C20 28.9333 24.16 31.9733 30.4267 33.8133L39.7867 43.1733C38.88 44.48 36.9867 45.6 33.3333 45.6C27.84 45.6 25.68 43.1467 25.3867 40H19.52C19.84 45.84 24.2133 49.12 29.3333 50.2133V56H37.3333V50.2667C39.8933 49.7867 42.2133 48.8 43.8933 47.28L49.8133 53.2L53.5733 49.44L14.5867 10.4533Z" fill="#0FB268"/>
</svg>
