<svg width="1002" height="1297" viewBox="0 0 1002 1297" fill="none" xmlns="http://www.w3.org/2000/svg">
<g opacity="0.08" clip-path="url(#clip0_11_274)">
<path d="M1005.83 290.564L517.151 159.624L159.458 517.197L290.443 1005.71L779.121 1136.65L1136.81 779.079L1005.83 290.564Z" stroke="#00FF8B" stroke-width="1.18061" stroke-miterlimit="10"/>
<path d="M544.154 190.525C547.006 188.878 767.601 246.453 771.077 247.384C774.553 248.315 994.381 308.752 995.005 311.33C995.629 313.908 1113.6 752.037 1112.67 755.513C1111.73 758.989 792.552 1079.98 789.7 1081.63C786.848 1083.28 566.308 1025.5 563.854 1024.84C561.4 1024.18 340.495 963.676 339.871 961.098C339.247 958.521 219.234 519.844 220.165 516.368C221.096 512.892 541.302 192.171 544.154 190.525Z" stroke="#00FF8B" stroke-width="1.18061" stroke-miterlimit="10"/>
<path d="M570.896 221.581C576.804 218.343 773.656 268.021 780.608 269.884C787.56 271.746 983.082 327.204 986.374 332.908C989.667 338.612 1092.63 725.602 1090.55 733.372C1088.47 741.142 806.022 1023.99 800.099 1028.1C794.176 1032.21 597.34 981.657 590.388 979.795C583.436 977.932 388.118 922.529 384.621 916.77C381.123 911.012 278.365 524.076 280.447 516.306C282.529 508.536 564.375 224.655 570.896 221.581Z" stroke="#00FF8B" stroke-width="1.18061" stroke-miterlimit="10"/>
<path d="M597.844 252.686C606.455 247.542 780.081 289.025 790.304 291.764C800.528 294.504 971.798 344.778 976.683 353.538C981.567 362.298 1070.64 698.889 1067.85 709.317C1065.05 719.745 819.727 966.295 811.171 971.235C802.616 976.174 629.304 934.337 618.876 931.543C608.448 928.749 437.437 878.325 432.498 869.769C427.558 861.214 338.634 524.882 341.374 514.659C344.113 504.436 589.289 257.626 597.844 252.686Z" stroke="#00FF8B" stroke-width="1.18061" stroke-miterlimit="10"/>
<path d="M624.847 283.588C636.254 277.002 785.973 311.202 799.672 314.873C813.371 318.544 960.335 363.839 966.921 375.247C973.507 386.654 1048.45 672.121 1044.72 686.025C1041 699.929 833.417 909.477 822.01 916.063C810.603 922.649 660.83 888.653 646.926 884.928C633.022 881.202 486.522 835.811 479.936 824.404C473.35 812.997 398.205 527.474 401.876 513.775C405.547 500.075 612.622 289.955 624.847 283.588Z" stroke="#00FF8B" stroke-width="1.18061" stroke-miterlimit="10"/>
<path d="M651.589 314.644C666.108 306.262 792.082 332.566 809.257 337.168C826.433 341.77 948.886 382.032 957.064 396.496C965.241 410.959 1026.46 645.414 1021.8 662.794C1017.14 680.174 847.106 852.664 832.234 860.732C817.361 868.8 691.945 842.865 674.566 838.209C657.186 833.552 535.141 793.399 526.759 778.881C518.377 764.362 457.57 530.017 462.172 512.842C466.775 495.667 637.33 322.877 651.589 314.644Z" stroke="#00FF8B" stroke-width="1.18061" stroke-miterlimit="10"/>
<path d="M678.592 345.545C695.703 335.666 798.138 354.129 818.789 359.662C839.441 365.196 937.588 400.479 947.467 417.59C957.346 434.701 1004.47 618.701 998.935 639.352C993.401 660.003 860.592 795.791 843.427 805.874C826.261 815.958 723.88 797.291 703.025 791.702C682.169 786.114 584.431 750.94 574.552 733.829C564.673 716.719 517.55 532.719 523.139 511.863C528.727 491.007 660.813 355.464 678.592 345.545Z" stroke="#00FF8B" stroke-width="1.18061" stroke-miterlimit="10"/>
<path d="M705.336 376.596C725.503 365.126 804.194 375.692 828.322 382.157C852.449 388.622 926.086 418.872 937.611 438.834C949.136 458.797 982.275 591.933 975.81 616.06C969.345 640.187 874.283 738.972 854.061 750.647C833.839 762.322 755.407 751.606 731.688 745.251C707.97 738.896 634.129 708.591 622.399 688.574C610.669 668.556 577.939 535.53 584.459 511.198C590.979 486.866 685.373 388.122 705.336 376.596Z" stroke="#00FF8B" stroke-width="1.18061" stroke-miterlimit="10"/>
<path d="M732.282 407.708C755.151 394.332 810.304 397.057 837.907 404.453C865.51 411.849 914.636 437.065 927.958 460.139C941.279 483.213 960.284 565.226 952.888 592.829C945.492 620.432 887.767 682.105 864.898 695.481C842.029 708.858 786.113 705.709 759.123 698.477C732.134 691.245 682.394 665.865 669.222 643.05C656.05 620.236 636.95 537.759 644.347 510.156C651.743 482.552 709.059 420.77 732.282 407.708Z" stroke="#00FF8B" stroke-width="1.18061" stroke-miterlimit="10"/>
<path d="M929.804 570.203C922.877 596.286 907.12 619.162 885.217 634.927C863.313 650.695 836.622 658.379 809.689 656.669C782.754 654.959 757.248 643.964 737.513 625.555C717.779 607.145 705.04 582.461 701.467 555.712C697.892 528.963 703.706 501.801 717.916 478.858C732.124 455.913 753.851 438.606 779.39 429.888C804.93 421.167 832.706 421.575 857.98 431.038C883.251 440.503 904.462 458.439 917.992 481.79C925.719 495.008 930.744 509.633 932.772 524.811C934.799 539.989 933.79 555.418 929.804 570.203Z" stroke="#00FF8B" stroke-width="1.18061" stroke-miterlimit="10"/>
<path d="M297.6 1007.26L352.887 1021.95L353.967 1023.03L295.008 1007.26L297.6 1007.26Z" fill="#00FF8B"/>
<path d="M444.456 1046.35L590.448 1085.44L590.448 1087.17L444.456 1047.43L444.456 1046.35Z" fill="#00FF8B"/>
<path d="M502.551 1007.26L590.447 1031.24L590.447 1034.48L498.015 1007.26L502.551 1007.26Z" fill="#00FF8B"/>
<rect x="318.764" y="342.953" width="79.0432" height="13.3898" fill="#00FF8B"/>
</g>
<defs>
<clipPath id="clip0_11_274">
<rect width="1058.4" height="1058.4" fill="white" transform="translate(273.935) rotate(15)"/>
</clipPath>
</defs>
</svg>
