<svg width="271" height="202" viewBox="0 0 271 202" fill="none" xmlns="http://www.w3.org/2000/svg">
<g clip-path="url(#clip0_226_10)">
<rect width="271" height="202" rx="16" fill="#212030"/>
<path d="M32.3789 23.2109L27.2812 38H24.1992L30.6211 20.9375H32.5898L32.3789 23.2109ZM36.6445 38L31.5352 23.2109L31.3125 20.9375H33.293L39.7383 38H36.6445ZM36.3984 31.6719V34.0039H27.1172V31.6719H36.3984ZM49.4883 25.3203H52.0547V37.6484C52.0547 38.7891 51.8125 39.7578 51.3281 40.5547C50.8438 41.3516 50.168 41.957 49.3008 42.3711C48.4336 42.793 47.4297 43.0039 46.2891 43.0039C45.8047 43.0039 45.2656 42.9336 44.6719 42.793C44.0859 42.6523 43.5156 42.4258 42.9609 42.1133C42.4141 41.8086 41.957 41.4062 41.5898 40.9062L42.9141 39.2422C43.3672 39.7812 43.8672 40.1758 44.4141 40.4258C44.9609 40.6758 45.5352 40.8008 46.1367 40.8008C46.7852 40.8008 47.3359 40.6797 47.7891 40.4375C48.25 40.2031 48.6055 39.8555 48.8555 39.3945C49.1055 38.9336 49.2305 38.3711 49.2305 37.707V28.1914L49.4883 25.3203ZM40.875 31.8008V31.5547C40.875 30.5938 40.9922 29.7188 41.2266 28.9297C41.4609 28.1328 41.7969 27.4492 42.2344 26.8789C42.6719 26.3008 43.2031 25.8594 43.8281 25.5547C44.4531 25.2422 45.1602 25.0859 45.9492 25.0859C46.7695 25.0859 47.4688 25.2344 48.0469 25.5312C48.6328 25.8281 49.1211 26.2539 49.5117 26.8086C49.9023 27.3555 50.207 28.0117 50.4258 28.7773C50.6523 29.5352 50.8203 30.3789 50.9297 31.3086V32.0938C50.8281 33 50.6562 33.8281 50.4141 34.5781C50.1719 35.3281 49.8516 35.9766 49.4531 36.5234C49.0547 37.0703 48.5625 37.4922 47.9766 37.7891C47.3984 38.0859 46.7148 38.2344 45.9258 38.2344C45.1523 38.2344 44.4531 38.0742 43.8281 37.7539C43.2109 37.4336 42.6797 36.9844 42.2344 36.4062C41.7969 35.8281 41.4609 35.1484 41.2266 34.3672C40.9922 33.5781 40.875 32.7227 40.875 31.8008ZM43.6992 31.5547V31.8008C43.6992 32.3789 43.7539 32.918 43.8633 33.418C43.9805 33.918 44.1562 34.3594 44.3906 34.7422C44.6328 35.1172 44.9375 35.4141 45.3047 35.6328C45.6797 35.8438 46.1211 35.9492 46.6289 35.9492C47.293 35.9492 47.8359 35.8086 48.2578 35.5273C48.6875 35.2461 49.0156 34.8672 49.2422 34.3906C49.4766 33.9062 49.6406 33.3672 49.7344 32.7734V30.6523C49.6875 30.1914 49.5898 29.7617 49.4414 29.3633C49.3008 28.9648 49.1094 28.6172 48.8672 28.3203C48.625 28.0156 48.3203 27.7812 47.9531 27.6172C47.5859 27.4453 47.1523 27.3594 46.6523 27.3594C46.1445 27.3594 45.7031 27.4688 45.3281 27.6875C44.9531 27.9062 44.6445 28.207 44.4023 28.5898C44.168 28.9727 43.9922 29.418 43.875 29.9258C43.7578 30.4336 43.6992 30.9766 43.6992 31.5547ZM60.5742 38.2344C59.6367 38.2344 58.7891 38.082 58.0312 37.7773C57.2812 37.4648 56.6406 37.0312 56.1094 36.4766C55.5859 35.9219 55.1836 35.2695 54.9023 34.5195C54.6211 33.7695 54.4805 32.9609 54.4805 32.0938V31.625C54.4805 30.6328 54.625 29.7344 54.9141 28.9297C55.2031 28.125 55.6055 27.4375 56.1211 26.8672C56.6367 26.2891 57.2461 25.8477 57.9492 25.543C58.6523 25.2383 59.4141 25.0859 60.2344 25.0859C61.1406 25.0859 61.9336 25.2383 62.6133 25.543C63.293 25.8477 63.8555 26.2773 64.3008 26.832C64.7539 27.3789 65.0898 28.0312 65.3086 28.7891C65.5352 29.5469 65.6484 30.3828 65.6484 31.2969V32.5039H55.8516V30.4766H62.8594V30.2539C62.8438 29.7461 62.7422 29.2695 62.5547 28.8242C62.375 28.3789 62.0977 28.0195 61.7227 27.7461C61.3477 27.4727 60.8477 27.3359 60.2227 27.3359C59.7539 27.3359 59.3359 27.4375 58.9688 27.6406C58.6094 27.8359 58.3086 28.1211 58.0664 28.4961C57.8242 28.8711 57.6367 29.3242 57.5039 29.8555C57.3789 30.3789 57.3164 30.9688 57.3164 31.625V32.0938C57.3164 32.6484 57.3906 33.1641 57.5391 33.6406C57.6953 34.1094 57.9219 34.5195 58.2188 34.8711C58.5156 35.2227 58.875 35.5 59.2969 35.7031C59.7188 35.8984 60.1992 35.9961 60.7383 35.9961C61.418 35.9961 62.0234 35.8594 62.5547 35.5859C63.0859 35.3125 63.5469 34.9258 63.9375 34.4258L65.4258 35.8672C65.1523 36.2656 64.7969 36.6484 64.3594 37.0156C63.9219 37.375 63.3867 37.668 62.7539 37.8945C62.1289 38.1211 61.4023 38.2344 60.5742 38.2344ZM70.6523 28.0273V38H67.8281V25.3203H70.4883L70.6523 28.0273ZM70.1484 31.1914L69.2344 31.1797C69.2422 30.2812 69.3672 29.457 69.6094 28.707C69.8594 27.957 70.2031 27.3125 70.6406 26.7734C71.0859 26.2344 71.6172 25.8203 72.2344 25.5312C72.8516 25.2344 73.5391 25.0859 74.2969 25.0859C74.9062 25.0859 75.457 25.1719 75.9492 25.3438C76.4492 25.5078 76.875 25.7773 77.2266 26.1523C77.5859 26.5273 77.8594 27.0156 78.0469 27.6172C78.2344 28.2109 78.3281 28.9414 78.3281 29.8086V38H75.4922V29.7969C75.4922 29.1875 75.4023 28.707 75.2227 28.3555C75.0508 27.9961 74.7969 27.7422 74.4609 27.5938C74.1328 27.4375 73.7227 27.3594 73.2305 27.3594C72.7461 27.3594 72.3125 27.4609 71.9297 27.6641C71.5469 27.8672 71.2227 28.1445 70.957 28.4961C70.6992 28.8477 70.5 29.2539 70.3594 29.7148C70.2188 30.1758 70.1484 30.668 70.1484 31.1914ZM88.9453 35.375V20H91.7812V38H89.2148L88.9453 35.375ZM80.6953 31.8008V31.5547C80.6953 30.5938 80.8086 29.7188 81.0352 28.9297C81.2617 28.1328 81.5898 27.4492 82.0195 26.8789C82.4492 26.3008 82.9727 25.8594 83.5898 25.5547C84.207 25.2422 84.9023 25.0859 85.6758 25.0859C86.4414 25.0859 87.1133 25.2344 87.6914 25.5312C88.2695 25.8281 88.7617 26.2539 89.168 26.8086C89.5742 27.3555 89.8984 28.0117 90.1406 28.7773C90.3828 29.5352 90.5547 30.3789 90.6562 31.3086V32.0938C90.5547 33 90.3828 33.8281 90.1406 34.5781C89.8984 35.3281 89.5742 35.9766 89.168 36.5234C88.7617 37.0703 88.2656 37.4922 87.6797 37.7891C87.1016 38.0859 86.4258 38.2344 85.6523 38.2344C84.8867 38.2344 84.1953 38.0742 83.5781 37.7539C82.9688 37.4336 82.4492 36.9844 82.0195 36.4062C81.5898 35.8281 81.2617 35.1484 81.0352 34.3672C80.8086 33.5781 80.6953 32.7227 80.6953 31.8008ZM83.5195 31.5547V31.8008C83.5195 32.3789 83.5703 32.918 83.6719 33.418C83.7812 33.918 83.9492 34.3594 84.1758 34.7422C84.4023 35.1172 84.6953 35.4141 85.0547 35.6328C85.4219 35.8438 85.8594 35.9492 86.3672 35.9492C87.0078 35.9492 87.5352 35.8086 87.9492 35.5273C88.3633 35.2461 88.6875 34.8672 88.9219 34.3906C89.1641 33.9062 89.3281 33.3672 89.4141 32.7734V30.6523C89.3672 30.1914 89.2695 29.7617 89.1211 29.3633C88.9805 28.9648 88.7891 28.6172 88.5469 28.3203C88.3047 28.0156 88.0039 27.7812 87.6445 27.6172C87.293 27.4453 86.875 27.3594 86.3906 27.3594C85.875 27.3594 85.4375 27.4688 85.0781 27.6875C84.7188 27.9062 84.4219 28.207 84.1875 28.5898C83.9609 28.9727 83.793 29.418 83.6836 29.9258C83.5742 30.4336 83.5195 30.9766 83.5195 31.5547ZM101.883 35.457V29.4102C101.883 28.957 101.801 28.5664 101.637 28.2383C101.473 27.9102 101.223 27.6562 100.887 27.4766C100.559 27.2969 100.145 27.207 99.6445 27.207C99.1836 27.207 98.7852 27.2852 98.4492 27.4414C98.1133 27.5977 97.8516 27.8086 97.6641 28.0742C97.4766 28.3398 97.3828 28.6406 97.3828 28.9766H94.5703C94.5703 28.4766 94.6914 27.9922 94.9336 27.5234C95.1758 27.0547 95.5273 26.6367 95.9883 26.2695C96.4492 25.9023 97 25.6133 97.6406 25.4023C98.2812 25.1914 99 25.0859 99.7969 25.0859C100.75 25.0859 101.594 25.2461 102.328 25.5664C103.07 25.8867 103.652 26.3711 104.074 27.0195C104.504 27.6602 104.719 28.4648 104.719 29.4336V35.0703C104.719 35.6484 104.758 36.168 104.836 36.6289C104.922 37.082 105.043 37.4766 105.199 37.8125V38H102.305C102.172 37.6953 102.066 37.3086 101.988 36.8398C101.918 36.3633 101.883 35.9023 101.883 35.457ZM102.293 30.2891L102.316 32.0352H100.289C99.7656 32.0352 99.3047 32.0859 98.9062 32.1875C98.5078 32.2812 98.1758 32.4219 97.9102 32.6094C97.6445 32.7969 97.4453 33.0234 97.3125 33.2891C97.1797 33.5547 97.1133 33.8555 97.1133 34.1914C97.1133 34.5273 97.1914 34.8359 97.3477 35.1172C97.5039 35.3906 97.7305 35.6055 98.0273 35.7617C98.332 35.918 98.6992 35.9961 99.1289 35.9961C99.707 35.9961 100.211 35.8789 100.641 35.6445C101.078 35.4023 101.422 35.1094 101.672 34.7656C101.922 34.4141 102.055 34.082 102.07 33.7695L102.984 35.0234C102.891 35.3438 102.73 35.6875 102.504 36.0547C102.277 36.4219 101.98 36.7734 101.613 37.1094C101.254 37.4375 100.82 37.707 100.312 37.918C99.8125 38.1289 99.2344 38.2344 98.5781 38.2344C97.75 38.2344 97.0117 38.0703 96.3633 37.7422C95.7148 37.4062 95.207 36.957 94.8398 36.3945C94.4727 35.8242 94.2891 35.1797 94.2891 34.4609C94.2891 33.7891 94.4141 33.1953 94.6641 32.6797C94.9219 32.1562 95.2969 31.7188 95.7891 31.3672C96.2891 31.0156 96.8984 30.75 97.6172 30.5703C98.3359 30.3828 99.1562 30.2891 100.078 30.2891H102.293ZM120.797 35.457V29.4102C120.797 28.957 120.715 28.5664 120.551 28.2383C120.387 27.9102 120.137 27.6562 119.801 27.4766C119.473 27.2969 119.059 27.207 118.559 27.207C118.098 27.207 117.699 27.2852 117.363 27.4414C117.027 27.5977 116.766 27.8086 116.578 28.0742C116.391 28.3398 116.297 28.6406 116.297 28.9766H113.484C113.484 28.4766 113.605 27.9922 113.848 27.5234C114.09 27.0547 114.441 26.6367 114.902 26.2695C115.363 25.9023 115.914 25.6133 116.555 25.4023C117.195 25.1914 117.914 25.0859 118.711 25.0859C119.664 25.0859 120.508 25.2461 121.242 25.5664C121.984 25.8867 122.566 26.3711 122.988 27.0195C123.418 27.6602 123.633 28.4648 123.633 29.4336V35.0703C123.633 35.6484 123.672 36.168 123.75 36.6289C123.836 37.082 123.957 37.4766 124.113 37.8125V38H121.219C121.086 37.6953 120.98 37.3086 120.902 36.8398C120.832 36.3633 120.797 35.9023 120.797 35.457ZM121.207 30.2891L121.23 32.0352H119.203C118.68 32.0352 118.219 32.0859 117.82 32.1875C117.422 32.2812 117.09 32.4219 116.824 32.6094C116.559 32.7969 116.359 33.0234 116.227 33.2891C116.094 33.5547 116.027 33.8555 116.027 34.1914C116.027 34.5273 116.105 34.8359 116.262 35.1172C116.418 35.3906 116.645 35.6055 116.941 35.7617C117.246 35.918 117.613 35.9961 118.043 35.9961C118.621 35.9961 119.125 35.8789 119.555 35.6445C119.992 35.4023 120.336 35.1094 120.586 34.7656C120.836 34.4141 120.969 34.082 120.984 33.7695L121.898 35.0234C121.805 35.3438 121.645 35.6875 121.418 36.0547C121.191 36.4219 120.895 36.7734 120.527 37.1094C120.168 37.4375 119.734 37.707 119.227 37.918C118.727 38.1289 118.148 38.2344 117.492 38.2344C116.664 38.2344 115.926 38.0703 115.277 37.7422C114.629 37.4062 114.121 36.957 113.754 36.3945C113.387 35.8242 113.203 35.1797 113.203 34.4609C113.203 33.7891 113.328 33.1953 113.578 32.6797C113.836 32.1562 114.211 31.7188 114.703 31.3672C115.203 31.0156 115.812 30.75 116.531 30.5703C117.25 30.3828 118.07 30.2891 118.992 30.2891H121.207ZM126.598 20H129.422V35.293L129.152 38H126.598V20ZM137.695 31.543V31.7891C137.695 32.7266 137.59 33.5898 137.379 34.3789C137.176 35.1602 136.863 35.8398 136.441 36.418C136.027 36.9961 135.512 37.4453 134.895 37.7656C134.285 38.0781 133.578 38.2344 132.773 38.2344C131.984 38.2344 131.297 38.0859 130.711 37.7891C130.125 37.4922 129.633 37.0703 129.234 36.5234C128.844 35.9766 128.527 35.3242 128.285 34.5664C128.043 33.8086 127.871 32.9727 127.77 32.0586V31.2734C127.871 30.3516 128.043 29.5156 128.285 28.7656C128.527 28.0078 128.844 27.3555 129.234 26.8086C129.633 26.2539 130.121 25.8281 130.699 25.5312C131.285 25.2344 131.969 25.0859 132.75 25.0859C133.562 25.0859 134.277 25.2422 134.895 25.5547C135.52 25.8672 136.039 26.3125 136.453 26.8906C136.867 27.4609 137.176 28.1406 137.379 28.9297C137.59 29.7188 137.695 30.5898 137.695 31.543ZM134.871 31.7891V31.543C134.871 30.9727 134.824 30.4375 134.73 29.9375C134.637 29.4297 134.48 28.9844 134.262 28.6016C134.051 28.2188 133.762 27.918 133.395 27.6992C133.035 27.4727 132.586 27.3594 132.047 27.3594C131.547 27.3594 131.117 27.4453 130.758 27.6172C130.398 27.7891 130.098 28.0234 129.855 28.3203C129.613 28.6172 129.422 28.9609 129.281 29.3516C129.148 29.7422 129.059 30.1641 129.012 30.6172V32.7383C129.082 33.3242 129.23 33.8633 129.457 34.3555C129.691 34.8398 130.02 35.2305 130.441 35.5273C130.863 35.8164 131.406 35.9609 132.07 35.9609C132.594 35.9609 133.035 35.8555 133.395 35.6445C133.754 35.4336 134.039 35.1406 134.25 34.7656C134.469 34.3828 134.625 33.9375 134.719 33.4297C134.82 32.9219 134.871 32.375 134.871 31.7891ZM145.676 38.2344C144.738 38.2344 143.891 38.082 143.133 37.7773C142.383 37.4648 141.742 37.0312 141.211 36.4766C140.688 35.9219 140.285 35.2695 140.004 34.5195C139.723 33.7695 139.582 32.9609 139.582 32.0938V31.625C139.582 30.6328 139.727 29.7344 140.016 28.9297C140.305 28.125 140.707 27.4375 141.223 26.8672C141.738 26.2891 142.348 25.8477 143.051 25.543C143.754 25.2383 144.516 25.0859 145.336 25.0859C146.242 25.0859 147.035 25.2383 147.715 25.543C148.395 25.8477 148.957 26.2773 149.402 26.832C149.855 27.3789 150.191 28.0312 150.41 28.7891C150.637 29.5469 150.75 30.3828 150.75 31.2969V32.5039H140.953V30.4766H147.961V30.2539C147.945 29.7461 147.844 29.2695 147.656 28.8242C147.477 28.3789 147.199 28.0195 146.824 27.7461C146.449 27.4727 145.949 27.3359 145.324 27.3359C144.855 27.3359 144.438 27.4375 144.07 27.6406C143.711 27.8359 143.41 28.1211 143.168 28.4961C142.926 28.8711 142.738 29.3242 142.605 29.8555C142.48 30.3789 142.418 30.9688 142.418 31.625V32.0938C142.418 32.6484 142.492 33.1641 142.641 33.6406C142.797 34.1094 143.023 34.5195 143.32 34.8711C143.617 35.2227 143.977 35.5 144.398 35.7031C144.82 35.8984 145.301 35.9961 145.84 35.9961C146.52 35.9961 147.125 35.8594 147.656 35.5859C148.188 35.3125 148.648 34.9258 149.039 34.4258L150.527 35.8672C150.254 36.2656 149.898 36.6484 149.461 37.0156C149.023 37.375 148.488 37.668 147.855 37.8945C147.23 38.1211 146.504 38.2344 145.676 38.2344ZM155.789 27.7344V38H152.965V25.3203H155.66L155.789 27.7344ZM159.668 25.2383L159.645 27.8633C159.473 27.832 159.285 27.8086 159.082 27.793C158.887 27.7773 158.691 27.7695 158.496 27.7695C158.012 27.7695 157.586 27.8398 157.219 27.9805C156.852 28.1133 156.543 28.3086 156.293 28.5664C156.051 28.8164 155.863 29.1211 155.73 29.4805C155.598 29.8398 155.52 30.2422 155.496 30.6875L154.852 30.7344C154.852 29.9375 154.93 29.1992 155.086 28.5195C155.242 27.8398 155.477 27.2422 155.789 26.7266C156.109 26.2109 156.508 25.8086 156.984 25.5195C157.469 25.2305 158.027 25.0859 158.66 25.0859C158.832 25.0859 159.016 25.1016 159.211 25.1328C159.414 25.1641 159.566 25.1992 159.668 25.2383ZM167.836 25.3203V27.3828H160.688V25.3203H167.836ZM162.75 22.2148H165.574V34.4961C165.574 34.8867 165.629 35.1875 165.738 35.3984C165.855 35.6016 166.016 35.7383 166.219 35.8086C166.422 35.8789 166.66 35.9141 166.934 35.9141C167.129 35.9141 167.316 35.9023 167.496 35.8789C167.676 35.8555 167.82 35.832 167.93 35.8086L167.941 37.9648C167.707 38.0352 167.434 38.0977 167.121 38.1523C166.816 38.207 166.465 38.2344 166.066 38.2344C165.418 38.2344 164.844 38.1211 164.344 37.8945C163.844 37.6602 163.453 37.2812 163.172 36.7578C162.891 36.2344 162.75 35.5391 162.75 34.6719V22.2148ZM177.164 35.457V29.4102C177.164 28.957 177.082 28.5664 176.918 28.2383C176.754 27.9102 176.504 27.6562 176.168 27.4766C175.84 27.2969 175.426 27.207 174.926 27.207C174.465 27.207 174.066 27.2852 173.73 27.4414C173.395 27.5977 173.133 27.8086 172.945 28.0742C172.758 28.3398 172.664 28.6406 172.664 28.9766H169.852C169.852 28.4766 169.973 27.9922 170.215 27.5234C170.457 27.0547 170.809 26.6367 171.27 26.2695C171.73 25.9023 172.281 25.6133 172.922 25.4023C173.562 25.1914 174.281 25.0859 175.078 25.0859C176.031 25.0859 176.875 25.2461 177.609 25.5664C178.352 25.8867 178.934 26.3711 179.355 27.0195C179.785 27.6602 180 28.4648 180 29.4336V35.0703C180 35.6484 180.039 36.168 180.117 36.6289C180.203 37.082 180.324 37.4766 180.48 37.8125V38H177.586C177.453 37.6953 177.348 37.3086 177.27 36.8398C177.199 36.3633 177.164 35.9023 177.164 35.457ZM177.574 30.2891L177.598 32.0352H175.57C175.047 32.0352 174.586 32.0859 174.188 32.1875C173.789 32.2812 173.457 32.4219 173.191 32.6094C172.926 32.7969 172.727 33.0234 172.594 33.2891C172.461 33.5547 172.395 33.8555 172.395 34.1914C172.395 34.5273 172.473 34.8359 172.629 35.1172C172.785 35.3906 173.012 35.6055 173.309 35.7617C173.613 35.918 173.98 35.9961 174.41 35.9961C174.988 35.9961 175.492 35.8789 175.922 35.6445C176.359 35.4023 176.703 35.1094 176.953 34.7656C177.203 34.4141 177.336 34.082 177.352 33.7695L178.266 35.0234C178.172 35.3438 178.012 35.6875 177.785 36.0547C177.559 36.4219 177.262 36.7734 176.895 37.1094C176.535 37.4375 176.102 37.707 175.594 37.918C175.094 38.1289 174.516 38.2344 173.859 38.2344C173.031 38.2344 172.293 38.0703 171.645 37.7422C170.996 37.4062 170.488 36.957 170.121 36.3945C169.754 35.8242 169.57 35.1797 169.57 34.4609C169.57 33.7891 169.695 33.1953 169.945 32.6797C170.203 32.1562 170.578 31.7188 171.07 31.3672C171.57 31.0156 172.18 30.75 172.898 30.5703C173.617 30.3828 174.438 30.2891 175.359 30.2891H177.574ZM191.766 27.7578V42.875H188.941V25.3203H191.543L191.766 27.7578ZM200.027 31.543V31.7891C200.027 32.7109 199.918 33.5664 199.699 34.3555C199.488 35.1367 199.172 35.8203 198.75 36.4062C198.336 36.9844 197.824 37.4336 197.215 37.7539C196.605 38.0742 195.902 38.2344 195.105 38.2344C194.316 38.2344 193.625 38.0898 193.031 37.8008C192.445 37.5039 191.949 37.0859 191.543 36.5469C191.137 36.0078 190.809 35.375 190.559 34.6484C190.316 33.9141 190.145 33.1094 190.043 32.2344V31.2852C190.145 30.3555 190.316 29.5117 190.559 28.7539C190.809 27.9961 191.137 27.3438 191.543 26.7969C191.949 26.25 192.445 25.8281 193.031 25.5312C193.617 25.2344 194.301 25.0859 195.082 25.0859C195.879 25.0859 196.586 25.2422 197.203 25.5547C197.82 25.8594 198.34 26.2969 198.762 26.8672C199.184 27.4297 199.5 28.1094 199.711 28.9062C199.922 29.6953 200.027 30.5742 200.027 31.543ZM197.203 31.7891V31.543C197.203 30.957 197.148 30.4141 197.039 29.9141C196.93 29.4062 196.758 28.9609 196.523 28.5781C196.289 28.1953 195.988 27.8984 195.621 27.6875C195.262 27.4688 194.828 27.3594 194.32 27.3594C193.82 27.3594 193.391 27.4453 193.031 27.6172C192.672 27.7812 192.371 28.0117 192.129 28.3086C191.887 28.6055 191.699 28.9531 191.566 29.3516C191.434 29.7422 191.34 30.168 191.285 30.6289V32.9023C191.379 33.4648 191.539 33.9805 191.766 34.4492C191.992 34.918 192.312 35.293 192.727 35.5742C193.148 35.8477 193.688 35.9844 194.344 35.9844C194.852 35.9844 195.285 35.875 195.645 35.6562C196.004 35.4375 196.297 35.1367 196.523 34.7539C196.758 34.3633 196.93 33.9141 197.039 33.4062C197.148 32.8984 197.203 32.3594 197.203 31.7891ZM209.578 35.457V29.4102C209.578 28.957 209.496 28.5664 209.332 28.2383C209.168 27.9102 208.918 27.6562 208.582 27.4766C208.254 27.2969 207.84 27.207 207.34 27.207C206.879 27.207 206.48 27.2852 206.145 27.4414C205.809 27.5977 205.547 27.8086 205.359 28.0742C205.172 28.3398 205.078 28.6406 205.078 28.9766H202.266C202.266 28.4766 202.387 27.9922 202.629 27.5234C202.871 27.0547 203.223 26.6367 203.684 26.2695C204.145 25.9023 204.695 25.6133 205.336 25.4023C205.977 25.1914 206.695 25.0859 207.492 25.0859C208.445 25.0859 209.289 25.2461 210.023 25.5664C210.766 25.8867 211.348 26.3711 211.77 27.0195C212.199 27.6602 212.414 28.4648 212.414 29.4336V35.0703C212.414 35.6484 212.453 36.168 212.531 36.6289C212.617 37.082 212.738 37.4766 212.895 37.8125V38H210C209.867 37.6953 209.762 37.3086 209.684 36.8398C209.613 36.3633 209.578 35.9023 209.578 35.457ZM209.988 30.2891L210.012 32.0352H207.984C207.461 32.0352 207 32.0859 206.602 32.1875C206.203 32.2812 205.871 32.4219 205.605 32.6094C205.34 32.7969 205.141 33.0234 205.008 33.2891C204.875 33.5547 204.809 33.8555 204.809 34.1914C204.809 34.5273 204.887 34.8359 205.043 35.1172C205.199 35.3906 205.426 35.6055 205.723 35.7617C206.027 35.918 206.395 35.9961 206.824 35.9961C207.402 35.9961 207.906 35.8789 208.336 35.6445C208.773 35.4023 209.117 35.1094 209.367 34.7656C209.617 34.4141 209.75 34.082 209.766 33.7695L210.68 35.0234C210.586 35.3438 210.426 35.6875 210.199 36.0547C209.973 36.4219 209.676 36.7734 209.309 37.1094C208.949 37.4375 208.516 37.707 208.008 37.918C207.508 38.1289 206.93 38.2344 206.273 38.2344C205.445 38.2344 204.707 38.0703 204.059 37.7422C203.41 37.4062 202.902 36.957 202.535 36.3945C202.168 35.8242 201.984 35.1797 201.984 34.4609C201.984 33.7891 202.109 33.1953 202.359 32.6797C202.617 32.1562 202.992 31.7188 203.484 31.3672C203.984 31.0156 204.594 30.75 205.312 30.5703C206.031 30.3828 206.852 30.2891 207.773 30.2891H209.988ZM218.203 27.7344V38H215.379V25.3203H218.074L218.203 27.7344ZM222.082 25.2383L222.059 27.8633C221.887 27.832 221.699 27.8086 221.496 27.793C221.301 27.7773 221.105 27.7695 220.91 27.7695C220.426 27.7695 220 27.8398 219.633 27.9805C219.266 28.1133 218.957 28.3086 218.707 28.5664C218.465 28.8164 218.277 29.1211 218.145 29.4805C218.012 29.8398 217.934 30.2422 217.91 30.6875L217.266 30.7344C217.266 29.9375 217.344 29.1992 217.5 28.5195C217.656 27.8398 217.891 27.2422 218.203 26.7266C218.523 26.2109 218.922 25.8086 219.398 25.5195C219.883 25.2305 220.441 25.0859 221.074 25.0859C221.246 25.0859 221.43 25.1016 221.625 25.1328C221.828 25.1641 221.98 25.1992 222.082 25.2383ZM230.578 35.457V29.4102C230.578 28.957 230.496 28.5664 230.332 28.2383C230.168 27.9102 229.918 27.6562 229.582 27.4766C229.254 27.2969 228.84 27.207 228.34 27.207C227.879 27.207 227.48 27.2852 227.145 27.4414C226.809 27.5977 226.547 27.8086 226.359 28.0742C226.172 28.3398 226.078 28.6406 226.078 28.9766H223.266C223.266 28.4766 223.387 27.9922 223.629 27.5234C223.871 27.0547 224.223 26.6367 224.684 26.2695C225.145 25.9023 225.695 25.6133 226.336 25.4023C226.977 25.1914 227.695 25.0859 228.492 25.0859C229.445 25.0859 230.289 25.2461 231.023 25.5664C231.766 25.8867 232.348 26.3711 232.77 27.0195C233.199 27.6602 233.414 28.4648 233.414 29.4336V35.0703C233.414 35.6484 233.453 36.168 233.531 36.6289C233.617 37.082 233.738 37.4766 233.895 37.8125V38H231C230.867 37.6953 230.762 37.3086 230.684 36.8398C230.613 36.3633 230.578 35.9023 230.578 35.457ZM230.988 30.2891L231.012 32.0352H228.984C228.461 32.0352 228 32.0859 227.602 32.1875C227.203 32.2812 226.871 32.4219 226.605 32.6094C226.34 32.7969 226.141 33.0234 226.008 33.2891C225.875 33.5547 225.809 33.8555 225.809 34.1914C225.809 34.5273 225.887 34.8359 226.043 35.1172C226.199 35.3906 226.426 35.6055 226.723 35.7617C227.027 35.918 227.395 35.9961 227.824 35.9961C228.402 35.9961 228.906 35.8789 229.336 35.6445C229.773 35.4023 230.117 35.1094 230.367 34.7656C230.617 34.4141 230.75 34.082 230.766 33.7695L231.68 35.0234C231.586 35.3438 231.426 35.6875 231.199 36.0547C230.973 36.4219 230.676 36.7734 230.309 37.1094C229.949 37.4375 229.516 37.707 229.008 37.918C228.508 38.1289 227.93 38.2344 227.273 38.2344C226.445 38.2344 225.707 38.0703 225.059 37.7422C224.41 37.4062 223.902 36.957 223.535 36.3945C223.168 35.8242 222.984 35.1797 222.984 34.4609C222.984 33.7891 223.109 33.1953 223.359 32.6797C223.617 32.1562 223.992 31.7188 224.484 31.3672C224.984 31.0156 225.594 30.75 226.312 30.5703C227.031 30.3828 227.852 30.2891 228.773 30.2891H230.988ZM28.2891 49.7578V64.875H25.4648V47.3203H28.0664L28.2891 49.7578ZM36.5508 53.543V53.7891C36.5508 54.7109 36.4414 55.5664 36.2227 56.3555C36.0117 57.1367 35.6953 57.8203 35.2734 58.4062C34.8594 58.9844 34.3477 59.4336 33.7383 59.7539C33.1289 60.0742 32.4258 60.2344 31.6289 60.2344C30.8398 60.2344 30.1484 60.0898 29.5547 59.8008C28.9688 59.5039 28.4727 59.0859 28.0664 58.5469C27.6602 58.0078 27.332 57.375 27.082 56.6484C26.8398 55.9141 26.668 55.1094 26.5664 54.2344V53.2852C26.668 52.3555 26.8398 51.5117 27.082 50.7539C27.332 49.9961 27.6602 49.3438 28.0664 48.7969C28.4727 48.25 28.9688 47.8281 29.5547 47.5312C30.1406 47.2344 30.8242 47.0859 31.6055 47.0859C32.4023 47.0859 33.1094 47.2422 33.7266 47.5547C34.3438 47.8594 34.8633 48.2969 35.2852 48.8672C35.707 49.4297 36.0234 50.1094 36.2344 50.9062C36.4453 51.6953 36.5508 52.5742 36.5508 53.543ZM33.7266 53.7891V53.543C33.7266 52.957 33.6719 52.4141 33.5625 51.9141C33.4531 51.4062 33.2812 50.9609 33.0469 50.5781C32.8125 50.1953 32.5117 49.8984 32.1445 49.6875C31.7852 49.4688 31.3516 49.3594 30.8438 49.3594C30.3438 49.3594 29.9141 49.4453 29.5547 49.6172C29.1953 49.7812 28.8945 50.0117 28.6523 50.3086C28.4102 50.6055 28.2227 50.9531 28.0898 51.3516C27.957 51.7422 27.8633 52.168 27.8086 52.6289V54.9023C27.9023 55.4648 28.0625 55.9805 28.2891 56.4492C28.5156 56.918 28.8359 57.293 29.25 57.5742C29.6719 57.8477 30.2109 57.9844 30.8672 57.9844C31.375 57.9844 31.8086 57.875 32.168 57.6562C32.5273 57.4375 32.8203 57.1367 33.0469 56.7539C33.2812 56.3633 33.4531 55.9141 33.5625 55.4062C33.6719 54.8984 33.7266 54.3594 33.7266 53.7891ZM41.7891 49.7344V60H38.9648V47.3203H41.6602L41.7891 49.7344ZM45.668 47.2383L45.6445 49.8633C45.4727 49.832 45.2852 49.8086 45.082 49.793C44.8867 49.7773 44.6914 49.7695 44.4961 49.7695C44.0117 49.7695 43.5859 49.8398 43.2188 49.9805C42.8516 50.1133 42.543 50.3086 42.293 50.5664C42.0508 50.8164 41.8633 51.1211 41.7305 51.4805C41.5977 51.8398 41.5195 52.2422 41.4961 52.6875L40.8516 52.7344C40.8516 51.9375 40.9297 51.1992 41.0859 50.5195C41.2422 49.8398 41.4766 49.2422 41.7891 48.7266C42.1094 48.2109 42.5078 47.8086 42.9844 47.5195C43.4688 47.2305 44.0273 47.0859 44.6602 47.0859C44.832 47.0859 45.0156 47.1016 45.2109 47.1328C45.4141 47.1641 45.5664 47.1992 45.668 47.2383ZM46.5938 53.8008V53.5312C46.5938 52.6172 46.7266 51.7695 46.9922 50.9883C47.2578 50.1992 47.6406 49.5156 48.1406 48.9375C48.6484 48.3516 49.2656 47.8984 49.9922 47.5781C50.7266 47.25 51.5547 47.0859 52.4766 47.0859C53.4062 47.0859 54.2344 47.25 54.9609 47.5781C55.6953 47.8984 56.3164 48.3516 56.8242 48.9375C57.332 49.5156 57.7188 50.1992 57.9844 50.9883C58.25 51.7695 58.3828 52.6172 58.3828 53.5312V53.8008C58.3828 54.7148 58.25 55.5625 57.9844 56.3438C57.7188 57.125 57.332 57.8086 56.8242 58.3945C56.3164 58.9727 55.6992 59.4258 54.9727 59.7539C54.2461 60.0742 53.4219 60.2344 52.5 60.2344C51.5703 60.2344 50.7383 60.0742 50.0039 59.7539C49.2773 59.4258 48.6602 58.9727 48.1523 58.3945C47.6445 57.8086 47.2578 57.125 46.9922 56.3438C46.7266 55.5625 46.5938 54.7148 46.5938 53.8008ZM49.418 53.5312V53.8008C49.418 54.3711 49.4766 54.9102 49.5938 55.418C49.7109 55.9258 49.8945 56.3711 50.1445 56.7539C50.3945 57.1367 50.7148 57.4375 51.1055 57.6562C51.4961 57.875 51.9609 57.9844 52.5 57.9844C53.0234 57.9844 53.4766 57.875 53.8594 57.6562C54.25 57.4375 54.5703 57.1367 54.8203 56.7539C55.0703 56.3711 55.2539 55.9258 55.3711 55.418C55.4961 54.9102 55.5586 54.3711 55.5586 53.8008V53.5312C55.5586 52.9688 55.4961 52.4375 55.3711 51.9375C55.2539 51.4297 55.0664 50.9805 54.8086 50.5898C54.5586 50.1992 54.2383 49.8945 53.8477 49.6758C53.4648 49.4492 53.0078 49.3359 52.4766 49.3359C51.9453 49.3359 51.4844 49.4492 51.0938 49.6758C50.7109 49.8945 50.3945 50.1992 50.1445 50.5898C49.8945 50.9805 49.7109 51.4297 49.5938 51.9375C49.4766 52.4375 49.418 52.9688 49.418 53.5312ZM60.8906 47.3203H63.7266V61.1016C63.7266 61.9688 63.5781 62.6992 63.2812 63.293C62.9844 63.8945 62.5469 64.3477 61.9688 64.6523C61.3906 64.9648 60.6836 65.1211 59.8477 65.1211C59.5977 65.1211 59.3398 65.1016 59.0742 65.0625C58.8008 65.0312 58.543 64.9844 58.3008 64.9219L58.3125 62.7188C58.4766 62.75 58.6523 62.7734 58.8398 62.7891C59.0195 62.8125 59.1914 62.8242 59.3555 62.8242C59.6914 62.8242 59.9727 62.7656 60.1992 62.6484C60.4258 62.5312 60.5977 62.3477 60.7148 62.0977C60.832 61.8477 60.8906 61.5156 60.8906 61.1016V47.3203ZM60.6445 43.9922C60.6445 43.5625 60.7891 43.207 61.0781 42.9258C61.3672 42.6367 61.7617 42.4922 62.2617 42.4922C62.7695 42.4922 63.1641 42.6367 63.4453 42.9258C63.7344 43.207 63.8789 43.5625 63.8789 43.9922C63.8789 44.4141 63.7344 44.7656 63.4453 45.0469C63.1641 45.3281 62.7695 45.4688 62.2617 45.4688C61.7617 45.4688 61.3672 45.3281 61.0781 45.0469C60.7891 44.7656 60.6445 44.4141 60.6445 43.9922ZM72.3633 60.2344C71.4258 60.2344 70.5781 60.082 69.8203 59.7773C69.0703 59.4648 68.4297 59.0312 67.8984 58.4766C67.375 57.9219 66.9727 57.2695 66.6914 56.5195C66.4102 55.7695 66.2695 54.9609 66.2695 54.0938V53.625C66.2695 52.6328 66.4141 51.7344 66.7031 50.9297C66.9922 50.125 67.3945 49.4375 67.9102 48.8672C68.4258 48.2891 69.0352 47.8477 69.7383 47.543C70.4414 47.2383 71.2031 47.0859 72.0234 47.0859C72.9297 47.0859 73.7227 47.2383 74.4023 47.543C75.082 47.8477 75.6445 48.2773 76.0898 48.832C76.543 49.3789 76.8789 50.0312 77.0977 50.7891C77.3242 51.5469 77.4375 52.3828 77.4375 53.2969V54.5039H67.6406V52.4766H74.6484V52.2539C74.6328 51.7461 74.5312 51.2695 74.3438 50.8242C74.1641 50.3789 73.8867 50.0195 73.5117 49.7461C73.1367 49.4727 72.6367 49.3359 72.0117 49.3359C71.543 49.3359 71.125 49.4375 70.7578 49.6406C70.3984 49.8359 70.0977 50.1211 69.8555 50.4961C69.6133 50.8711 69.4258 51.3242 69.293 51.8555C69.168 52.3789 69.1055 52.9688 69.1055 53.625V54.0938C69.1055 54.6484 69.1797 55.1641 69.3281 55.6406C69.4844 56.1094 69.7109 56.5195 70.0078 56.8711C70.3047 57.2227 70.6641 57.5 71.0859 57.7031C71.5078 57.8984 71.9883 57.9961 72.5273 57.9961C73.207 57.9961 73.8125 57.8594 74.3438 57.5859C74.875 57.3125 75.3359 56.9258 75.7266 56.4258L77.2148 57.8672C76.9414 58.2656 76.5859 58.6484 76.1484 59.0156C75.7109 59.375 75.1758 59.668 74.543 59.8945C73.918 60.1211 73.1914 60.2344 72.3633 60.2344ZM85.4531 47.3203V49.3828H78.3047V47.3203H85.4531ZM80.3672 44.2148H83.1914V56.4961C83.1914 56.8867 83.2461 57.1875 83.3555 57.3984C83.4727 57.6016 83.6328 57.7383 83.8359 57.8086C84.0391 57.8789 84.2773 57.9141 84.5508 57.9141C84.7461 57.9141 84.9336 57.9023 85.1133 57.8789C85.293 57.8555 85.4375 57.832 85.5469 57.8086L85.5586 59.9648C85.3242 60.0352 85.0508 60.0977 84.7383 60.1523C84.4336 60.207 84.082 60.2344 83.6836 60.2344C83.0352 60.2344 82.4609 60.1211 81.9609 59.8945C81.4609 59.6602 81.0703 59.2812 80.7891 58.7578C80.5078 58.2344 80.3672 57.5391 80.3672 56.6719V44.2148ZM86.8125 53.8008V53.5312C86.8125 52.6172 86.9453 51.7695 87.2109 50.9883C87.4766 50.1992 87.8594 49.5156 88.3594 48.9375C88.8672 48.3516 89.4844 47.8984 90.2109 47.5781C90.9453 47.25 91.7734 47.0859 92.6953 47.0859C93.625 47.0859 94.4531 47.25 95.1797 47.5781C95.9141 47.8984 96.5352 48.3516 97.043 48.9375C97.5508 49.5156 97.9375 50.1992 98.2031 50.9883C98.4688 51.7695 98.6016 52.6172 98.6016 53.5312V53.8008C98.6016 54.7148 98.4688 55.5625 98.2031 56.3438C97.9375 57.125 97.5508 57.8086 97.043 58.3945C96.5352 58.9727 95.918 59.4258 95.1914 59.7539C94.4648 60.0742 93.6406 60.2344 92.7188 60.2344C91.7891 60.2344 90.957 60.0742 90.2227 59.7539C89.4961 59.4258 88.8789 58.9727 88.3711 58.3945C87.8633 57.8086 87.4766 57.125 87.2109 56.3438C86.9453 55.5625 86.8125 54.7148 86.8125 53.8008ZM89.6367 53.5312V53.8008C89.6367 54.3711 89.6953 54.9102 89.8125 55.418C89.9297 55.9258 90.1133 56.3711 90.3633 56.7539C90.6133 57.1367 90.9336 57.4375 91.3242 57.6562C91.7148 57.875 92.1797 57.9844 92.7188 57.9844C93.2422 57.9844 93.6953 57.875 94.0781 57.6562C94.4688 57.4375 94.7891 57.1367 95.0391 56.7539C95.2891 56.3711 95.4727 55.9258 95.5898 55.418C95.7148 54.9102 95.7773 54.3711 95.7773 53.8008V53.5312C95.7773 52.9688 95.7148 52.4375 95.5898 51.9375C95.4727 51.4297 95.2852 50.9805 95.0273 50.5898C94.7773 50.1992 94.457 49.8945 94.0664 49.6758C93.6836 49.4492 93.2266 49.3359 92.6953 49.3359C92.1641 49.3359 91.7031 49.4492 91.3125 49.6758C90.9297 49.8945 90.6133 50.1992 90.3633 50.5898C90.1133 50.9805 89.9297 51.4297 89.8125 51.9375C89.6953 52.4375 89.6367 52.9688 89.6367 53.5312ZM108.082 56.5664C108.082 56.2852 108.012 56.0312 107.871 55.8047C107.73 55.5703 107.461 55.3594 107.062 55.1719C106.672 54.9844 106.094 54.8125 105.328 54.6562C104.656 54.5078 104.039 54.332 103.477 54.1289C102.922 53.918 102.445 53.6641 102.047 53.3672C101.648 53.0703 101.34 52.7188 101.121 52.3125C100.902 51.9062 100.793 51.4375 100.793 50.9062C100.793 50.3906 100.906 49.9023 101.133 49.4414C101.359 48.9805 101.684 48.5742 102.105 48.2227C102.527 47.8711 103.039 47.5938 103.641 47.3906C104.25 47.1875 104.93 47.0859 105.68 47.0859C106.742 47.0859 107.652 47.2656 108.41 47.625C109.176 47.9766 109.762 48.457 110.168 49.0664C110.574 49.668 110.777 50.3477 110.777 51.1055H107.953C107.953 50.7695 107.867 50.457 107.695 50.168C107.531 49.8711 107.281 49.6328 106.945 49.4531C106.609 49.2656 106.188 49.1719 105.68 49.1719C105.195 49.1719 104.793 49.25 104.473 49.4062C104.16 49.5547 103.926 49.75 103.77 49.9922C103.621 50.2344 103.547 50.5 103.547 50.7891C103.547 51 103.586 51.1914 103.664 51.3633C103.75 51.5273 103.891 51.6797 104.086 51.8203C104.281 51.9531 104.547 52.0781 104.883 52.1953C105.227 52.3125 105.656 52.4258 106.172 52.5352C107.141 52.7383 107.973 53 108.668 53.3203C109.371 53.6328 109.91 54.0391 110.285 54.5391C110.66 55.0312 110.848 55.6562 110.848 56.4141C110.848 56.9766 110.727 57.4922 110.484 57.9609C110.25 58.4219 109.906 58.8242 109.453 59.168C109 59.5039 108.457 59.7656 107.824 59.9531C107.199 60.1406 106.496 60.2344 105.715 60.2344C104.566 60.2344 103.594 60.0312 102.797 59.625C102 59.2109 101.395 58.6836 100.98 58.043C100.574 57.3945 100.371 56.7227 100.371 56.0273H103.102C103.133 56.5508 103.277 56.9688 103.535 57.2812C103.801 57.5859 104.129 57.8086 104.52 57.9492C104.918 58.082 105.328 58.1484 105.75 58.1484C106.258 58.1484 106.684 58.082 107.027 57.9492C107.371 57.8086 107.633 57.6211 107.812 57.3867C107.992 57.1445 108.082 56.8711 108.082 56.5664ZM130.746 57.668V60H121.688V57.668H130.746ZM122.52 42.9375V60H119.578V42.9375H122.52ZM129.562 50.0625V52.3594H121.688V50.0625H129.562ZM130.688 42.9375V45.2812H121.688V42.9375H130.688ZM135.023 47.3203L137.438 51.5273L139.898 47.3203H143.004L139.16 53.543L143.156 60H140.051L137.473 55.6172L134.895 60H131.777L135.762 53.543L131.93 47.3203H135.023ZM150.293 60.2344C149.355 60.2344 148.508 60.082 147.75 59.7773C147 59.4648 146.359 59.0312 145.828 58.4766C145.305 57.9219 144.902 57.2695 144.621 56.5195C144.34 55.7695 144.199 54.9609 144.199 54.0938V53.625C144.199 52.6328 144.344 51.7344 144.633 50.9297C144.922 50.125 145.324 49.4375 145.84 48.8672C146.355 48.2891 146.965 47.8477 147.668 47.543C148.371 47.2383 149.133 47.0859 149.953 47.0859C150.859 47.0859 151.652 47.2383 152.332 47.543C153.012 47.8477 153.574 48.2773 154.02 48.832C154.473 49.3789 154.809 50.0312 155.027 50.7891C155.254 51.5469 155.367 52.3828 155.367 53.2969V54.5039H145.57V52.4766H152.578V52.2539C152.562 51.7461 152.461 51.2695 152.273 50.8242C152.094 50.3789 151.816 50.0195 151.441 49.7461C151.066 49.4727 150.566 49.3359 149.941 49.3359C149.473 49.3359 149.055 49.4375 148.688 49.6406C148.328 49.8359 148.027 50.1211 147.785 50.4961C147.543 50.8711 147.355 51.3242 147.223 51.8555C147.098 52.3789 147.035 52.9688 147.035 53.625V54.0938C147.035 54.6484 147.109 55.1641 147.258 55.6406C147.414 56.1094 147.641 56.5195 147.938 56.8711C148.234 57.2227 148.594 57.5 149.016 57.7031C149.438 57.8984 149.918 57.9961 150.457 57.9961C151.137 57.9961 151.742 57.8594 152.273 57.5859C152.805 57.3125 153.266 56.9258 153.656 56.4258L155.145 57.8672C154.871 58.2656 154.516 58.6484 154.078 59.0156C153.641 59.375 153.105 59.668 152.473 59.8945C151.848 60.1211 151.121 60.2344 150.293 60.2344ZM162.75 57.9844C163.211 57.9844 163.625 57.8945 163.992 57.7148C164.367 57.5273 164.668 57.2695 164.895 56.9414C165.129 56.6133 165.258 56.2344 165.281 55.8047H167.941C167.926 56.625 167.684 57.3711 167.215 58.043C166.746 58.7148 166.125 59.25 165.352 59.6484C164.578 60.0391 163.723 60.2344 162.785 60.2344C161.816 60.2344 160.973 60.0703 160.254 59.7422C159.535 59.4062 158.938 58.9453 158.461 58.3594C157.984 57.7734 157.625 57.0977 157.383 56.332C157.148 55.5664 157.031 54.7461 157.031 53.8711V53.4609C157.031 52.5859 157.148 51.7656 157.383 51C157.625 50.2266 157.984 49.5469 158.461 48.9609C158.938 48.375 159.535 47.918 160.254 47.5898C160.973 47.2539 161.812 47.0859 162.773 47.0859C163.789 47.0859 164.68 47.2891 165.445 47.6953C166.211 48.0938 166.812 48.6523 167.25 49.3711C167.695 50.082 167.926 50.9102 167.941 51.8555H165.281C165.258 51.3867 165.141 50.9648 164.93 50.5898C164.727 50.207 164.438 49.9023 164.062 49.6758C163.695 49.4492 163.254 49.3359 162.738 49.3359C162.168 49.3359 161.695 49.4531 161.32 49.6875C160.945 49.9141 160.652 50.2266 160.441 50.625C160.23 51.0156 160.078 51.457 159.984 51.9492C159.898 52.4336 159.855 52.9375 159.855 53.4609V53.8711C159.855 54.3945 159.898 54.9023 159.984 55.3945C160.07 55.8867 160.219 56.3281 160.43 56.7188C160.648 57.1016 160.945 57.4102 161.32 57.6445C161.695 57.8711 162.172 57.9844 162.75 57.9844ZM177.738 57.0117V47.3203H180.574V60H177.902L177.738 57.0117ZM178.137 54.375L179.086 54.3516C179.086 55.2031 178.992 55.9883 178.805 56.707C178.617 57.418 178.328 58.0391 177.938 58.5703C177.547 59.0938 177.047 59.5039 176.438 59.8008C175.828 60.0898 175.098 60.2344 174.246 60.2344C173.629 60.2344 173.062 60.1445 172.547 59.9648C172.031 59.7852 171.586 59.5078 171.211 59.1328C170.844 58.7578 170.559 58.2695 170.355 57.668C170.152 57.0664 170.051 56.3477 170.051 55.5117V47.3203H172.875V55.5352C172.875 55.9961 172.93 56.3828 173.039 56.6953C173.148 57 173.297 57.2461 173.484 57.4336C173.672 57.6211 173.891 57.7539 174.141 57.832C174.391 57.9102 174.656 57.9492 174.938 57.9492C175.742 57.9492 176.375 57.793 176.836 57.4805C177.305 57.1602 177.637 56.7305 177.832 56.1914C178.035 55.6523 178.137 55.0469 178.137 54.375ZM189.281 47.3203V49.3828H182.133V47.3203H189.281ZM184.195 44.2148H187.02V56.4961C187.02 56.8867 187.074 57.1875 187.184 57.3984C187.301 57.6016 187.461 57.7383 187.664 57.8086C187.867 57.8789 188.105 57.9141 188.379 57.9141C188.574 57.9141 188.762 57.9023 188.941 57.8789C189.121 57.8555 189.266 57.832 189.375 57.8086L189.387 59.9648C189.152 60.0352 188.879 60.0977 188.566 60.1523C188.262 60.207 187.91 60.2344 187.512 60.2344C186.863 60.2344 186.289 60.1211 185.789 59.8945C185.289 59.6602 184.898 59.2812 184.617 58.7578C184.336 58.2344 184.195 57.5391 184.195 56.6719V44.2148ZM194.484 47.3203V60H191.648V47.3203H194.484ZM191.461 43.9922C191.461 43.5625 191.602 43.207 191.883 42.9258C192.172 42.6367 192.57 42.4922 193.078 42.4922C193.578 42.4922 193.973 42.6367 194.262 42.9258C194.551 43.207 194.695 43.5625 194.695 43.9922C194.695 44.4141 194.551 44.7656 194.262 45.0469C193.973 45.3281 193.578 45.4688 193.078 45.4688C192.57 45.4688 192.172 45.3281 191.883 45.0469C191.602 44.7656 191.461 44.4141 191.461 43.9922ZM201.703 57.7617L204.809 47.3203H207.738L203.332 60H201.504L201.703 57.7617ZM199.324 47.3203L202.488 57.8086L202.641 60H200.812L196.383 47.3203H199.324ZM208.758 53.8008V53.5312C208.758 52.6172 208.891 51.7695 209.156 50.9883C209.422 50.1992 209.805 49.5156 210.305 48.9375C210.812 48.3516 211.43 47.8984 212.156 47.5781C212.891 47.25 213.719 47.0859 214.641 47.0859C215.57 47.0859 216.398 47.25 217.125 47.5781C217.859 47.8984 218.48 48.3516 218.988 48.9375C219.496 49.5156 219.883 50.1992 220.148 50.9883C220.414 51.7695 220.547 52.6172 220.547 53.5312V53.8008C220.547 54.7148 220.414 55.5625 220.148 56.3438C219.883 57.125 219.496 57.8086 218.988 58.3945C218.48 58.9727 217.863 59.4258 217.137 59.7539C216.41 60.0742 215.586 60.2344 214.664 60.2344C213.734 60.2344 212.902 60.0742 212.168 59.7539C211.441 59.4258 210.824 58.9727 210.316 58.3945C209.809 57.8086 209.422 57.125 209.156 56.3438C208.891 55.5625 208.758 54.7148 208.758 53.8008ZM211.582 53.5312V53.8008C211.582 54.3711 211.641 54.9102 211.758 55.418C211.875 55.9258 212.059 56.3711 212.309 56.7539C212.559 57.1367 212.879 57.4375 213.27 57.6562C213.66 57.875 214.125 57.9844 214.664 57.9844C215.188 57.9844 215.641 57.875 216.023 57.6562C216.414 57.4375 216.734 57.1367 216.984 56.7539C217.234 56.3711 217.418 55.9258 217.535 55.418C217.66 54.9102 217.723 54.3711 217.723 53.8008V53.5312C217.723 52.9688 217.66 52.4375 217.535 51.9375C217.418 51.4297 217.23 50.9805 216.973 50.5898C216.723 50.1992 216.402 49.8945 216.012 49.6758C215.629 49.4492 215.172 49.3359 214.641 49.3359C214.109 49.3359 213.648 49.4492 213.258 49.6758C212.875 49.8945 212.559 50.1992 212.309 50.5898C212.059 50.9805 211.875 51.4297 211.758 51.9375C211.641 52.4375 211.582 52.9688 211.582 53.5312ZM230.027 56.5664C230.027 56.2852 229.957 56.0312 229.816 55.8047C229.676 55.5703 229.406 55.3594 229.008 55.1719C228.617 54.9844 228.039 54.8125 227.273 54.6562C226.602 54.5078 225.984 54.332 225.422 54.1289C224.867 53.918 224.391 53.6641 223.992 53.3672C223.594 53.0703 223.285 52.7188 223.066 52.3125C222.848 51.9062 222.738 51.4375 222.738 50.9062C222.738 50.3906 222.852 49.9023 223.078 49.4414C223.305 48.9805 223.629 48.5742 224.051 48.2227C224.473 47.8711 224.984 47.5938 225.586 47.3906C226.195 47.1875 226.875 47.0859 227.625 47.0859C228.688 47.0859 229.598 47.2656 230.355 47.625C231.121 47.9766 231.707 48.457 232.113 49.0664C232.52 49.668 232.723 50.3477 232.723 51.1055H229.898C229.898 50.7695 229.812 50.457 229.641 50.168C229.477 49.8711 229.227 49.6328 228.891 49.4531C228.555 49.2656 228.133 49.1719 227.625 49.1719C227.141 49.1719 226.738 49.25 226.418 49.4062C226.105 49.5547 225.871 49.75 225.715 49.9922C225.566 50.2344 225.492 50.5 225.492 50.7891C225.492 51 225.531 51.1914 225.609 51.3633C225.695 51.5273 225.836 51.6797 226.031 51.8203C226.227 51.9531 226.492 52.0781 226.828 52.1953C227.172 52.3125 227.602 52.4258 228.117 52.5352C229.086 52.7383 229.918 53 230.613 53.3203C231.316 53.6328 231.855 54.0391 232.23 54.5391C232.605 55.0312 232.793 55.6562 232.793 56.4141C232.793 56.9766 232.672 57.4922 232.43 57.9609C232.195 58.4219 231.852 58.8242 231.398 59.168C230.945 59.5039 230.402 59.7656 229.77 59.9531C229.145 60.1406 228.441 60.2344 227.66 60.2344C226.512 60.2344 225.539 60.0312 224.742 59.625C223.945 59.2109 223.34 58.6836 222.926 58.043C222.52 57.3945 222.316 56.7227 222.316 56.0273H225.047C225.078 56.5508 225.223 56.9688 225.48 57.2812C225.746 57.5859 226.074 57.8086 226.465 57.9492C226.863 58.082 227.273 58.1484 227.695 58.1484C228.203 58.1484 228.629 58.082 228.973 57.9492C229.316 57.8086 229.578 57.6211 229.758 57.3867C229.938 57.1445 230.027 56.8711 230.027 56.5664ZM32.2148 75.6367H27.7734V73.3047H32.2148C32.9883 73.3047 33.6133 73.1797 34.0898 72.9297C34.5664 72.6797 34.9141 72.3359 35.1328 71.8984C35.3594 71.4531 35.4727 70.9453 35.4727 70.375C35.4727 69.8359 35.3594 69.332 35.1328 68.8633C34.9141 68.3867 34.5664 68.0039 34.0898 67.7148C33.6133 67.4258 32.9883 67.2812 32.2148 67.2812H28.6758V82H25.7344V64.9375H32.2148C33.5352 64.9375 34.6562 65.1719 35.5781 65.6406C36.5078 66.1016 37.2148 66.7422 37.6992 67.5625C38.1836 68.375 38.4258 69.3047 38.4258 70.3516C38.4258 71.4531 38.1836 72.3984 37.6992 73.1875C37.2148 73.9766 36.5078 74.582 35.5781 75.0039C34.6562 75.4258 33.5352 75.6367 32.2148 75.6367ZM46.207 82.2344C45.2695 82.2344 44.4219 82.082 43.6641 81.7773C42.9141 81.4648 42.2734 81.0312 41.7422 80.4766C41.2188 79.9219 40.8164 79.2695 40.5352 78.5195C40.2539 77.7695 40.1133 76.9609 40.1133 76.0938V75.625C40.1133 74.6328 40.2578 73.7344 40.5469 72.9297C40.8359 72.125 41.2383 71.4375 41.7539 70.8672C42.2695 70.2891 42.8789 69.8477 43.582 69.543C44.2852 69.2383 45.0469 69.0859 45.8672 69.0859C46.7734 69.0859 47.5664 69.2383 48.2461 69.543C48.9258 69.8477 49.4883 70.2773 49.9336 70.832C50.3867 71.3789 50.7227 72.0312 50.9414 72.7891C51.168 73.5469 51.2812 74.3828 51.2812 75.2969V76.5039H41.4844V74.4766H48.4922V74.2539C48.4766 73.7461 48.375 73.2695 48.1875 72.8242C48.0078 72.3789 47.7305 72.0195 47.3555 71.7461C46.9805 71.4727 46.4805 71.3359 45.8555 71.3359C45.3867 71.3359 44.9688 71.4375 44.6016 71.6406C44.2422 71.8359 43.9414 72.1211 43.6992 72.4961C43.457 72.8711 43.2695 73.3242 43.1367 73.8555C43.0117 74.3789 42.9492 74.9688 42.9492 75.625V76.0938C42.9492 76.6484 43.0234 77.1641 43.1719 77.6406C43.3281 78.1094 43.5547 78.5195 43.8516 78.8711C44.1484 79.2227 44.5078 79.5 44.9297 79.7031C45.3516 79.8984 45.832 79.9961 46.3711 79.9961C47.0508 79.9961 47.6562 79.8594 48.1875 79.5859C48.7188 79.3125 49.1797 78.9258 49.5703 78.4258L51.0586 79.8672C50.7852 80.2656 50.4297 80.6484 49.9922 81.0156C49.5547 81.375 49.0195 81.668 48.3867 81.8945C47.7617 82.1211 47.0352 82.2344 46.207 82.2344ZM56.3203 71.7344V82H53.4961V69.3203H56.1914L56.3203 71.7344ZM60.1992 69.2383L60.1758 71.8633C60.0039 71.832 59.8164 71.8086 59.6133 71.793C59.418 71.7773 59.2227 71.7695 59.0273 71.7695C58.543 71.7695 58.1172 71.8398 57.75 71.9805C57.3828 72.1133 57.0742 72.3086 56.8242 72.5664C56.582 72.8164 56.3945 73.1211 56.2617 73.4805C56.1289 73.8398 56.0508 74.2422 56.0273 74.6875L55.3828 74.7344C55.3828 73.9375 55.4609 73.1992 55.6172 72.5195C55.7734 71.8398 56.0078 71.2422 56.3203 70.7266C56.6406 70.2109 57.0391 69.8086 57.5156 69.5195C58 69.2305 58.5586 69.0859 59.1914 69.0859C59.3633 69.0859 59.5469 69.1016 59.7422 69.1328C59.9453 69.1641 60.0977 69.1992 60.1992 69.2383ZM69.082 78.5664C69.082 78.2852 69.0117 78.0312 68.8711 77.8047C68.7305 77.5703 68.4609 77.3594 68.0625 77.1719C67.6719 76.9844 67.0938 76.8125 66.3281 76.6562C65.6562 76.5078 65.0391 76.332 64.4766 76.1289C63.9219 75.918 63.4453 75.6641 63.0469 75.3672C62.6484 75.0703 62.3398 74.7188 62.1211 74.3125C61.9023 73.9062 61.793 73.4375 61.793 72.9062C61.793 72.3906 61.9062 71.9023 62.1328 71.4414C62.3594 70.9805 62.6836 70.5742 63.1055 70.2227C63.5273 69.8711 64.0391 69.5938 64.6406 69.3906C65.25 69.1875 65.9297 69.0859 66.6797 69.0859C67.7422 69.0859 68.6523 69.2656 69.4102 69.625C70.1758 69.9766 70.7617 70.457 71.168 71.0664C71.5742 71.668 71.7773 72.3477 71.7773 73.1055H68.9531C68.9531 72.7695 68.8672 72.457 68.6953 72.168C68.5312 71.8711 68.2812 71.6328 67.9453 71.4531C67.6094 71.2656 67.1875 71.1719 66.6797 71.1719C66.1953 71.1719 65.793 71.25 65.4727 71.4062C65.1602 71.5547 64.9258 71.75 64.7695 71.9922C64.6211 72.2344 64.5469 72.5 64.5469 72.7891C64.5469 73 64.5859 73.1914 64.6641 73.3633C64.75 73.5273 64.8906 73.6797 65.0859 73.8203C65.2812 73.9531 65.5469 74.0781 65.8828 74.1953C66.2266 74.3125 66.6562 74.4258 67.1719 74.5352C68.1406 74.7383 68.9727 75 69.668 75.3203C70.3711 75.6328 70.9102 76.0391 71.2852 76.5391C71.6602 77.0312 71.8477 77.6562 71.8477 78.4141C71.8477 78.9766 71.7266 79.4922 71.4844 79.9609C71.25 80.4219 70.9062 80.8242 70.4531 81.168C70 81.5039 69.457 81.7656 68.8242 81.9531C68.1992 82.1406 67.4961 82.2344 66.7148 82.2344C65.5664 82.2344 64.5938 82.0312 63.7969 81.625C63 81.2109 62.3945 80.6836 61.9805 80.043C61.5742 79.3945 61.3711 78.7227 61.3711 78.0273H64.1016C64.1328 78.5508 64.2773 78.9688 64.5352 79.2812C64.8008 79.5859 65.1289 79.8086 65.5195 79.9492C65.918 80.082 66.3281 80.1484 66.75 80.1484C67.2578 80.1484 67.6836 80.082 68.0273 79.9492C68.3711 79.8086 68.6328 79.6211 68.8125 79.3867C68.9922 79.1445 69.082 78.8711 69.082 78.5664ZM73.7812 75.8008V75.5312C73.7812 74.6172 73.9141 73.7695 74.1797 72.9883C74.4453 72.1992 74.8281 71.5156 75.3281 70.9375C75.8359 70.3516 76.4531 69.8984 77.1797 69.5781C77.9141 69.25 78.7422 69.0859 79.6641 69.0859C80.5938 69.0859 81.4219 69.25 82.1484 69.5781C82.8828 69.8984 83.5039 70.3516 84.0117 70.9375C84.5195 71.5156 84.9062 72.1992 85.1719 72.9883C85.4375 73.7695 85.5703 74.6172 85.5703 75.5312V75.8008C85.5703 76.7148 85.4375 77.5625 85.1719 78.3438C84.9062 79.125 84.5195 79.8086 84.0117 80.3945C83.5039 80.9727 82.8867 81.4258 82.1602 81.7539C81.4336 82.0742 80.6094 82.2344 79.6875 82.2344C78.7578 82.2344 77.9258 82.0742 77.1914 81.7539C76.4648 81.4258 75.8477 80.9727 75.3398 80.3945C74.832 79.8086 74.4453 79.125 74.1797 78.3438C73.9141 77.5625 73.7812 76.7148 73.7812 75.8008ZM76.6055 75.5312V75.8008C76.6055 76.3711 76.6641 76.9102 76.7812 77.418C76.8984 77.9258 77.082 78.3711 77.332 78.7539C77.582 79.1367 77.9023 79.4375 78.293 79.6562C78.6836 79.875 79.1484 79.9844 79.6875 79.9844C80.2109 79.9844 80.6641 79.875 81.0469 79.6562C81.4375 79.4375 81.7578 79.1367 82.0078 78.7539C82.2578 78.3711 82.4414 77.9258 82.5586 77.418C82.6836 76.9102 82.7461 76.3711 82.7461 75.8008V75.5312C82.7461 74.9688 82.6836 74.4375 82.5586 73.9375C82.4414 73.4297 82.2539 72.9805 81.9961 72.5898C81.7461 72.1992 81.4258 71.8945 81.0352 71.6758C80.6523 71.4492 80.1953 71.3359 79.6641 71.3359C79.1328 71.3359 78.6719 71.4492 78.2812 71.6758C77.8984 71.8945 77.582 72.1992 77.332 72.5898C77.082 72.9805 76.8984 73.4297 76.7812 73.9375C76.6641 74.4375 76.6055 74.9688 76.6055 75.5312ZM90.7383 72.0273V82H87.9141V69.3203H90.5742L90.7383 72.0273ZM90.2344 75.1914L89.3203 75.1797C89.3281 74.2812 89.4531 73.457 89.6953 72.707C89.9453 71.957 90.2891 71.3125 90.7266 70.7734C91.1719 70.2344 91.7031 69.8203 92.3203 69.5312C92.9375 69.2344 93.625 69.0859 94.3828 69.0859C94.9922 69.0859 95.543 69.1719 96.0352 69.3438C96.5352 69.5078 96.9609 69.7773 97.3125 70.1523C97.6719 70.5273 97.9453 71.0156 98.1328 71.6172C98.3203 72.2109 98.4141 72.9414 98.4141 73.8086V82H95.5781V73.7969C95.5781 73.1875 95.4883 72.707 95.3086 72.3555C95.1367 71.9961 94.8828 71.7422 94.5469 71.5938C94.2188 71.4375 93.8086 71.3594 93.3164 71.3594C92.832 71.3594 92.3984 71.4609 92.0156 71.6641C91.6328 71.8672 91.3086 72.1445 91.043 72.4961C90.7852 72.8477 90.5859 73.2539 90.4453 73.7148C90.3047 74.1758 90.2344 74.668 90.2344 75.1914ZM108.445 79.457V73.4102C108.445 72.957 108.363 72.5664 108.199 72.2383C108.035 71.9102 107.785 71.6562 107.449 71.4766C107.121 71.2969 106.707 71.207 106.207 71.207C105.746 71.207 105.348 71.2852 105.012 71.4414C104.676 71.5977 104.414 71.8086 104.227 72.0742C104.039 72.3398 103.945 72.6406 103.945 72.9766H101.133C101.133 72.4766 101.254 71.9922 101.496 71.5234C101.738 71.0547 102.09 70.6367 102.551 70.2695C103.012 69.9023 103.562 69.6133 104.203 69.4023C104.844 69.1914 105.562 69.0859 106.359 69.0859C107.312 69.0859 108.156 69.2461 108.891 69.5664C109.633 69.8867 110.215 70.3711 110.637 71.0195C111.066 71.6602 111.281 72.4648 111.281 73.4336V79.0703C111.281 79.6484 111.32 80.168 111.398 80.6289C111.484 81.082 111.605 81.4766 111.762 81.8125V82H108.867C108.734 81.6953 108.629 81.3086 108.551 80.8398C108.48 80.3633 108.445 79.9023 108.445 79.457ZM108.855 74.2891L108.879 76.0352H106.852C106.328 76.0352 105.867 76.0859 105.469 76.1875C105.07 76.2812 104.738 76.4219 104.473 76.6094C104.207 76.7969 104.008 77.0234 103.875 77.2891C103.742 77.5547 103.676 77.8555 103.676 78.1914C103.676 78.5273 103.754 78.8359 103.91 79.1172C104.066 79.3906 104.293 79.6055 104.59 79.7617C104.895 79.918 105.262 79.9961 105.691 79.9961C106.27 79.9961 106.773 79.8789 107.203 79.6445C107.641 79.4023 107.984 79.1094 108.234 78.7656C108.484 78.4141 108.617 78.082 108.633 77.7695L109.547 79.0234C109.453 79.3438 109.293 79.6875 109.066 80.0547C108.84 80.4219 108.543 80.7734 108.176 81.1094C107.816 81.4375 107.383 81.707 106.875 81.918C106.375 82.1289 105.797 82.2344 105.141 82.2344C104.312 82.2344 103.574 82.0703 102.926 81.7422C102.277 81.4062 101.77 80.957 101.402 80.3945C101.035 79.8242 100.852 79.1797 100.852 78.4609C100.852 77.7891 100.977 77.1953 101.227 76.6797C101.484 76.1562 101.859 75.7188 102.352 75.3672C102.852 75.0156 103.461 74.75 104.18 74.5703C104.898 74.3828 105.719 74.2891 106.641 74.2891H108.855ZM117.258 64V82H114.422V64H117.258ZM123.375 69.3203V82H120.539V69.3203H123.375ZM120.352 65.9922C120.352 65.5625 120.492 65.207 120.773 64.9258C121.062 64.6367 121.461 64.4922 121.969 64.4922C122.469 64.4922 122.863 64.6367 123.152 64.9258C123.441 65.207 123.586 65.5625 123.586 65.9922C123.586 66.4141 123.441 66.7656 123.152 67.0469C122.863 67.3281 122.469 67.4688 121.969 67.4688C121.461 67.4688 121.062 67.3281 120.773 67.0469C120.492 66.7656 120.352 66.4141 120.352 65.9922ZM136.277 79.75V82H126.832V79.75H136.277ZM136.02 71.0781L127.793 82H125.965V80.1836L134.145 69.3203H136.02V71.0781ZM134.93 69.3203V71.5703H126.105V69.3203H134.93ZM145.688 79.457V73.4102C145.688 72.957 145.605 72.5664 145.441 72.2383C145.277 71.9102 145.027 71.6562 144.691 71.4766C144.363 71.2969 143.949 71.207 143.449 71.207C142.988 71.207 142.59 71.2852 142.254 71.4414C141.918 71.5977 141.656 71.8086 141.469 72.0742C141.281 72.3398 141.188 72.6406 141.188 72.9766H138.375C138.375 72.4766 138.496 71.9922 138.738 71.5234C138.98 71.0547 139.332 70.6367 139.793 70.2695C140.254 69.9023 140.805 69.6133 141.445 69.4023C142.086 69.1914 142.805 69.0859 143.602 69.0859C144.555 69.0859 145.398 69.2461 146.133 69.5664C146.875 69.8867 147.457 70.3711 147.879 71.0195C148.309 71.6602 148.523 72.4648 148.523 73.4336V79.0703C148.523 79.6484 148.562 80.168 148.641 80.6289C148.727 81.082 148.848 81.4766 149.004 81.8125V82H146.109C145.977 81.6953 145.871 81.3086 145.793 80.8398C145.723 80.3633 145.688 79.9023 145.688 79.457ZM146.098 74.2891L146.121 76.0352H144.094C143.57 76.0352 143.109 76.0859 142.711 76.1875C142.312 76.2812 141.98 76.4219 141.715 76.6094C141.449 76.7969 141.25 77.0234 141.117 77.2891C140.984 77.5547 140.918 77.8555 140.918 78.1914C140.918 78.5273 140.996 78.8359 141.152 79.1172C141.309 79.3906 141.535 79.6055 141.832 79.7617C142.137 79.918 142.504 79.9961 142.934 79.9961C143.512 79.9961 144.016 79.8789 144.445 79.6445C144.883 79.4023 145.227 79.1094 145.477 78.7656C145.727 78.4141 145.859 78.082 145.875 77.7695L146.789 79.0234C146.695 79.3438 146.535 79.6875 146.309 80.0547C146.082 80.4219 145.785 80.7734 145.418 81.1094C145.059 81.4375 144.625 81.707 144.117 81.918C143.617 82.1289 143.039 82.2344 142.383 82.2344C141.555 82.2344 140.816 82.0703 140.168 81.7422C139.52 81.4062 139.012 80.957 138.645 80.3945C138.277 79.8242 138.094 79.1797 138.094 78.4609C138.094 77.7891 138.219 77.1953 138.469 76.6797C138.727 76.1562 139.102 75.7188 139.594 75.3672C140.094 75.0156 140.703 74.75 141.422 74.5703C142.141 74.3828 142.961 74.2891 143.883 74.2891H146.098ZM159.211 79.375V64H162.047V82H159.48L159.211 79.375ZM150.961 75.8008V75.5547C150.961 74.5938 151.074 73.7188 151.301 72.9297C151.527 72.1328 151.855 71.4492 152.285 70.8789C152.715 70.3008 153.238 69.8594 153.855 69.5547C154.473 69.2422 155.168 69.0859 155.941 69.0859C156.707 69.0859 157.379 69.2344 157.957 69.5312C158.535 69.8281 159.027 70.2539 159.434 70.8086C159.84 71.3555 160.164 72.0117 160.406 72.7773C160.648 73.5352 160.82 74.3789 160.922 75.3086V76.0938C160.82 77 160.648 77.8281 160.406 78.5781C160.164 79.3281 159.84 79.9766 159.434 80.5234C159.027 81.0703 158.531 81.4922 157.945 81.7891C157.367 82.0859 156.691 82.2344 155.918 82.2344C155.152 82.2344 154.461 82.0742 153.844 81.7539C153.234 81.4336 152.715 80.9844 152.285 80.4062C151.855 79.8281 151.527 79.1484 151.301 78.3672C151.074 77.5781 150.961 76.7227 150.961 75.8008ZM153.785 75.5547V75.8008C153.785 76.3789 153.836 76.918 153.938 77.418C154.047 77.918 154.215 78.3594 154.441 78.7422C154.668 79.1172 154.961 79.4141 155.32 79.6328C155.688 79.8438 156.125 79.9492 156.633 79.9492C157.273 79.9492 157.801 79.8086 158.215 79.5273C158.629 79.2461 158.953 78.8672 159.188 78.3906C159.43 77.9062 159.594 77.3672 159.68 76.7734V74.6523C159.633 74.1914 159.535 73.7617 159.387 73.3633C159.246 72.9648 159.055 72.6172 158.812 72.3203C158.57 72.0156 158.27 71.7812 157.91 71.6172C157.559 71.4453 157.141 71.3594 156.656 71.3594C156.141 71.3594 155.703 71.4688 155.344 71.6875C154.984 71.9062 154.688 72.207 154.453 72.5898C154.227 72.9727 154.059 73.418 153.949 73.9258C153.84 74.4336 153.785 74.9766 153.785 75.5547ZM164.461 75.8008V75.5312C164.461 74.6172 164.594 73.7695 164.859 72.9883C165.125 72.1992 165.508 71.5156 166.008 70.9375C166.516 70.3516 167.133 69.8984 167.859 69.5781C168.594 69.25 169.422 69.0859 170.344 69.0859C171.273 69.0859 172.102 69.25 172.828 69.5781C173.562 69.8984 174.184 70.3516 174.691 70.9375C175.199 71.5156 175.586 72.1992 175.852 72.9883C176.117 73.7695 176.25 74.6172 176.25 75.5312V75.8008C176.25 76.7148 176.117 77.5625 175.852 78.3438C175.586 79.125 175.199 79.8086 174.691 80.3945C174.184 80.9727 173.566 81.4258 172.84 81.7539C172.113 82.0742 171.289 82.2344 170.367 82.2344C169.438 82.2344 168.605 82.0742 167.871 81.7539C167.145 81.4258 166.527 80.9727 166.02 80.3945C165.512 79.8086 165.125 79.125 164.859 78.3438C164.594 77.5625 164.461 76.7148 164.461 75.8008ZM167.285 75.5312V75.8008C167.285 76.3711 167.344 76.9102 167.461 77.418C167.578 77.9258 167.762 78.3711 168.012 78.7539C168.262 79.1367 168.582 79.4375 168.973 79.6562C169.363 79.875 169.828 79.9844 170.367 79.9844C170.891 79.9844 171.344 79.875 171.727 79.6562C172.117 79.4375 172.438 79.1367 172.688 78.7539C172.938 78.3711 173.121 77.9258 173.238 77.418C173.363 76.9102 173.426 76.3711 173.426 75.8008V75.5312C173.426 74.9688 173.363 74.4375 173.238 73.9375C173.121 73.4297 172.934 72.9805 172.676 72.5898C172.426 72.1992 172.105 71.8945 171.715 71.6758C171.332 71.4492 170.875 71.3359 170.344 71.3359C169.812 71.3359 169.352 71.4492 168.961 71.6758C168.578 71.8945 168.262 72.1992 168.012 72.5898C167.762 72.9805 167.578 73.4297 167.461 73.9375C167.344 74.4375 167.285 74.9688 167.285 75.5312ZM185.73 78.5664C185.73 78.2852 185.66 78.0312 185.52 77.8047C185.379 77.5703 185.109 77.3594 184.711 77.1719C184.32 76.9844 183.742 76.8125 182.977 76.6562C182.305 76.5078 181.688 76.332 181.125 76.1289C180.57 75.918 180.094 75.6641 179.695 75.3672C179.297 75.0703 178.988 74.7188 178.77 74.3125C178.551 73.9062 178.441 73.4375 178.441 72.9062C178.441 72.3906 178.555 71.9023 178.781 71.4414C179.008 70.9805 179.332 70.5742 179.754 70.2227C180.176 69.8711 180.688 69.5938 181.289 69.3906C181.898 69.1875 182.578 69.0859 183.328 69.0859C184.391 69.0859 185.301 69.2656 186.059 69.625C186.824 69.9766 187.41 70.457 187.816 71.0664C188.223 71.668 188.426 72.3477 188.426 73.1055H185.602C185.602 72.7695 185.516 72.457 185.344 72.168C185.18 71.8711 184.93 71.6328 184.594 71.4531C184.258 71.2656 183.836 71.1719 183.328 71.1719C182.844 71.1719 182.441 71.25 182.121 71.4062C181.809 71.5547 181.574 71.75 181.418 71.9922C181.27 72.2344 181.195 72.5 181.195 72.7891C181.195 73 181.234 73.1914 181.312 73.3633C181.398 73.5273 181.539 73.6797 181.734 73.8203C181.93 73.9531 182.195 74.0781 182.531 74.1953C182.875 74.3125 183.305 74.4258 183.82 74.5352C184.789 74.7383 185.621 75 186.316 75.3203C187.02 75.6328 187.559 76.0391 187.934 76.5391C188.309 77.0312 188.496 77.6562 188.496 78.4141C188.496 78.9766 188.375 79.4922 188.133 79.9609C187.898 80.4219 187.555 80.8242 187.102 81.168C186.648 81.5039 186.105 81.7656 185.473 81.9531C184.848 82.1406 184.145 82.2344 183.363 82.2344C182.215 82.2344 181.242 82.0312 180.445 81.625C179.648 81.2109 179.043 80.6836 178.629 80.043C178.223 79.3945 178.02 78.7227 178.02 78.0273H180.75C180.781 78.5508 180.926 78.9688 181.184 79.2812C181.449 79.5859 181.777 79.8086 182.168 79.9492C182.566 80.082 182.977 80.1484 183.398 80.1484C183.906 80.1484 184.332 80.082 184.676 79.9492C185.02 79.8086 185.281 79.6211 185.461 79.3867C185.641 79.1445 185.73 78.8711 185.73 78.5664Z" fill="#0FB268"/>
<rect x="19" y="95" width="239" height="28" rx="10" fill="#0FB268"/>
<path d="M85.2827 103.625V115H82.939V103.625H85.2827ZM89.814 108.484V110.312H84.6421V108.484H89.814ZM90.3608 103.625V105.461H84.6421V103.625H90.3608ZM95.8765 113.094V109.328C95.8765 109.057 95.8322 108.826 95.7437 108.633C95.6551 108.435 95.5171 108.281 95.3296 108.172C95.1473 108.062 94.9103 108.008 94.6187 108.008C94.3687 108.008 94.1525 108.052 93.9702 108.141C93.7879 108.224 93.6473 108.346 93.5483 108.508C93.4494 108.664 93.3999 108.849 93.3999 109.062H91.1499C91.1499 108.703 91.2332 108.362 91.3999 108.039C91.5666 107.716 91.8088 107.432 92.1265 107.188C92.4442 106.938 92.8218 106.742 93.2593 106.602C93.702 106.461 94.1968 106.391 94.7437 106.391C95.3999 106.391 95.9832 106.5 96.4937 106.719C97.0041 106.938 97.4051 107.266 97.6968 107.703C97.9937 108.141 98.1421 108.688 98.1421 109.344V112.961C98.1421 113.424 98.1707 113.805 98.228 114.102C98.2853 114.393 98.3687 114.648 98.478 114.867V115H96.2046C96.0952 114.771 96.0119 114.484 95.9546 114.141C95.9025 113.792 95.8765 113.443 95.8765 113.094ZM96.1733 109.852L96.189 111.125H94.9312C94.6343 111.125 94.3765 111.159 94.1577 111.227C93.939 111.294 93.7593 111.391 93.6187 111.516C93.478 111.635 93.3739 111.776 93.3062 111.938C93.2437 112.099 93.2124 112.276 93.2124 112.469C93.2124 112.661 93.2567 112.836 93.3452 112.992C93.4338 113.143 93.5614 113.263 93.728 113.352C93.8947 113.435 94.09 113.477 94.314 113.477C94.6525 113.477 94.9468 113.409 95.1968 113.273C95.4468 113.138 95.6395 112.971 95.7749 112.773C95.9155 112.576 95.9884 112.388 95.9937 112.211L96.5874 113.164C96.5041 113.378 96.3895 113.599 96.2437 113.828C96.103 114.057 95.9233 114.273 95.7046 114.477C95.4858 114.674 95.2228 114.839 94.9155 114.969C94.6082 115.094 94.2437 115.156 93.8218 115.156C93.2853 115.156 92.7983 115.049 92.3608 114.836C91.9285 114.617 91.5848 114.318 91.3296 113.938C91.0796 113.552 90.9546 113.115 90.9546 112.625C90.9546 112.182 91.0379 111.789 91.2046 111.445C91.3713 111.102 91.616 110.812 91.939 110.578C92.2671 110.339 92.6759 110.159 93.1655 110.039C93.6551 109.914 94.2228 109.852 94.8687 109.852H96.1733ZM106.603 113.242V115H100.181V113.242H106.603ZM106.478 107.844L101.087 115H99.5796V113.664L104.947 106.547H106.478V107.844ZM105.681 106.547V108.312H99.7046V106.547H105.681ZM111.783 115.156C111.126 115.156 110.538 115.052 110.017 114.844C109.496 114.63 109.054 114.336 108.689 113.961C108.33 113.586 108.054 113.151 107.861 112.656C107.668 112.156 107.572 111.625 107.572 111.062V110.75C107.572 110.109 107.663 109.523 107.845 108.992C108.028 108.461 108.288 108 108.626 107.609C108.97 107.219 109.387 106.919 109.876 106.711C110.366 106.497 110.918 106.391 111.533 106.391C112.132 106.391 112.663 106.49 113.126 106.688C113.59 106.885 113.978 107.167 114.291 107.531C114.608 107.896 114.848 108.333 115.009 108.844C115.171 109.349 115.251 109.911 115.251 110.531V111.469H108.533V109.969H113.041V109.797C113.041 109.484 112.983 109.206 112.869 108.961C112.759 108.711 112.593 108.513 112.369 108.367C112.145 108.221 111.858 108.148 111.509 108.148C111.212 108.148 110.957 108.214 110.744 108.344C110.53 108.474 110.356 108.656 110.22 108.891C110.09 109.125 109.991 109.401 109.923 109.719C109.861 110.031 109.83 110.375 109.83 110.75V111.062C109.83 111.401 109.876 111.714 109.97 112C110.069 112.286 110.207 112.534 110.384 112.742C110.567 112.951 110.785 113.112 111.041 113.227C111.301 113.341 111.595 113.398 111.923 113.398C112.33 113.398 112.707 113.32 113.056 113.164C113.41 113.003 113.715 112.76 113.97 112.438L115.064 113.625C114.887 113.88 114.645 114.125 114.337 114.359C114.035 114.594 113.671 114.786 113.244 114.938C112.817 115.083 112.33 115.156 111.783 115.156ZM118.783 108.391V115H116.533V106.547H118.65L118.783 108.391ZM121.33 106.492L121.291 108.578C121.181 108.562 121.048 108.549 120.892 108.539C120.741 108.523 120.603 108.516 120.478 108.516C120.16 108.516 119.884 108.557 119.65 108.641C119.421 108.719 119.228 108.836 119.072 108.992C118.921 109.148 118.806 109.339 118.728 109.562C118.655 109.786 118.613 110.042 118.603 110.328L118.15 110.188C118.15 109.641 118.205 109.138 118.314 108.68C118.423 108.216 118.582 107.812 118.791 107.469C119.004 107.125 119.264 106.859 119.572 106.672C119.879 106.484 120.231 106.391 120.626 106.391C120.751 106.391 120.879 106.401 121.009 106.422C121.139 106.438 121.246 106.461 121.33 106.492ZM130.939 113.094V109.328C130.939 109.057 130.895 108.826 130.806 108.633C130.718 108.435 130.58 108.281 130.392 108.172C130.21 108.062 129.973 108.008 129.681 108.008C129.431 108.008 129.215 108.052 129.033 108.141C128.85 108.224 128.71 108.346 128.611 108.508C128.512 108.664 128.462 108.849 128.462 109.062H126.212C126.212 108.703 126.296 108.362 126.462 108.039C126.629 107.716 126.871 107.432 127.189 107.188C127.507 106.938 127.884 106.742 128.322 106.602C128.764 106.461 129.259 106.391 129.806 106.391C130.462 106.391 131.046 106.5 131.556 106.719C132.067 106.938 132.468 107.266 132.759 107.703C133.056 108.141 133.205 108.688 133.205 109.344V112.961C133.205 113.424 133.233 113.805 133.291 114.102C133.348 114.393 133.431 114.648 133.541 114.867V115H131.267C131.158 114.771 131.074 114.484 131.017 114.141C130.965 113.792 130.939 113.443 130.939 113.094ZM131.236 109.852L131.251 111.125H129.994C129.697 111.125 129.439 111.159 129.22 111.227C129.001 111.294 128.822 111.391 128.681 111.516C128.541 111.635 128.436 111.776 128.369 111.938C128.306 112.099 128.275 112.276 128.275 112.469C128.275 112.661 128.319 112.836 128.408 112.992C128.496 113.143 128.624 113.263 128.791 113.352C128.957 113.435 129.153 113.477 129.376 113.477C129.715 113.477 130.009 113.409 130.259 113.273C130.509 113.138 130.702 112.971 130.837 112.773C130.978 112.576 131.051 112.388 131.056 112.211L131.65 113.164C131.567 113.378 131.452 113.599 131.306 113.828C131.166 114.057 130.986 114.273 130.767 114.477C130.548 114.674 130.285 114.839 129.978 114.969C129.671 115.094 129.306 115.156 128.884 115.156C128.348 115.156 127.861 115.049 127.423 114.836C126.991 114.617 126.647 114.318 126.392 113.938C126.142 113.552 126.017 113.115 126.017 112.625C126.017 112.182 126.1 111.789 126.267 111.445C126.434 111.102 126.679 110.812 127.001 110.578C127.33 110.339 127.738 110.159 128.228 110.039C128.718 109.914 129.285 109.852 129.931 109.852H131.236ZM137.189 108.172V118.25H134.939V106.547H137.025L137.189 108.172ZM142.541 110.68V110.844C142.541 111.458 142.468 112.029 142.322 112.555C142.181 113.081 141.973 113.539 141.697 113.93C141.421 114.315 141.077 114.617 140.666 114.836C140.259 115.049 139.791 115.156 139.259 115.156C138.744 115.156 138.296 115.052 137.916 114.844C137.535 114.635 137.215 114.344 136.955 113.969C136.699 113.589 136.494 113.148 136.337 112.648C136.181 112.148 136.061 111.612 135.978 111.039V110.609C136.061 109.995 136.181 109.432 136.337 108.922C136.494 108.406 136.699 107.961 136.955 107.586C137.215 107.206 137.533 106.911 137.908 106.703C138.288 106.495 138.733 106.391 139.244 106.391C139.78 106.391 140.251 106.492 140.658 106.695C141.069 106.898 141.413 107.19 141.689 107.57C141.97 107.951 142.181 108.404 142.322 108.93C142.468 109.456 142.541 110.039 142.541 110.68ZM140.283 110.844V110.68C140.283 110.32 140.251 109.99 140.189 109.688C140.132 109.38 140.038 109.112 139.908 108.883C139.783 108.654 139.616 108.477 139.408 108.352C139.205 108.221 138.957 108.156 138.666 108.156C138.358 108.156 138.095 108.206 137.876 108.305C137.663 108.404 137.488 108.547 137.353 108.734C137.218 108.922 137.116 109.146 137.048 109.406C136.981 109.667 136.939 109.961 136.923 110.289V111.375C136.949 111.76 137.022 112.107 137.142 112.414C137.262 112.716 137.447 112.956 137.697 113.133C137.947 113.31 138.275 113.398 138.681 113.398C138.978 113.398 139.228 113.333 139.431 113.203C139.634 113.068 139.798 112.883 139.923 112.648C140.054 112.414 140.145 112.143 140.197 111.836C140.254 111.529 140.283 111.198 140.283 110.844ZM146.314 103V115H144.056V103H146.314ZM150.548 106.547V115H148.291V106.547H150.548ZM148.15 104.344C148.15 104.016 148.264 103.745 148.494 103.531C148.723 103.318 149.03 103.211 149.416 103.211C149.796 103.211 150.1 103.318 150.33 103.531C150.564 103.745 150.681 104.016 150.681 104.344C150.681 104.672 150.564 104.943 150.33 105.156C150.1 105.37 149.796 105.477 149.416 105.477C149.03 105.477 148.723 105.37 148.494 105.156C148.264 104.943 148.15 104.672 148.15 104.344ZM155.9 113.398C156.176 113.398 156.421 113.346 156.634 113.242C156.848 113.133 157.014 112.982 157.134 112.789C157.259 112.591 157.324 112.359 157.33 112.094H159.447C159.442 112.688 159.283 113.216 158.97 113.68C158.658 114.138 158.238 114.5 157.712 114.766C157.186 115.026 156.598 115.156 155.947 115.156C155.291 115.156 154.718 115.047 154.228 114.828C153.744 114.609 153.34 114.307 153.017 113.922C152.694 113.531 152.452 113.078 152.291 112.562C152.129 112.042 152.048 111.484 152.048 110.891V110.664C152.048 110.065 152.129 109.508 152.291 108.992C152.452 108.471 152.694 108.018 153.017 107.633C153.34 107.242 153.744 106.938 154.228 106.719C154.712 106.5 155.28 106.391 155.931 106.391C156.624 106.391 157.231 106.523 157.751 106.789C158.278 107.055 158.689 107.435 158.986 107.93C159.288 108.419 159.442 109 159.447 109.672H157.33C157.324 109.391 157.264 109.135 157.15 108.906C157.041 108.677 156.879 108.495 156.666 108.359C156.457 108.219 156.199 108.148 155.892 108.148C155.564 108.148 155.296 108.219 155.087 108.359C154.879 108.495 154.718 108.682 154.603 108.922C154.488 109.156 154.408 109.424 154.361 109.727C154.319 110.023 154.298 110.336 154.298 110.664V110.891C154.298 111.219 154.319 111.534 154.361 111.836C154.403 112.138 154.481 112.406 154.595 112.641C154.715 112.875 154.879 113.06 155.087 113.195C155.296 113.331 155.567 113.398 155.9 113.398ZM165.314 113.094V109.328C165.314 109.057 165.27 108.826 165.181 108.633C165.093 108.435 164.955 108.281 164.767 108.172C164.585 108.062 164.348 108.008 164.056 108.008C163.806 108.008 163.59 108.052 163.408 108.141C163.225 108.224 163.085 108.346 162.986 108.508C162.887 108.664 162.837 108.849 162.837 109.062H160.587C160.587 108.703 160.671 108.362 160.837 108.039C161.004 107.716 161.246 107.432 161.564 107.188C161.882 106.938 162.259 106.742 162.697 106.602C163.139 106.461 163.634 106.391 164.181 106.391C164.837 106.391 165.421 106.5 165.931 106.719C166.442 106.938 166.843 107.266 167.134 107.703C167.431 108.141 167.58 108.688 167.58 109.344V112.961C167.58 113.424 167.608 113.805 167.666 114.102C167.723 114.393 167.806 114.648 167.916 114.867V115H165.642C165.533 114.771 165.449 114.484 165.392 114.141C165.34 113.792 165.314 113.443 165.314 113.094ZM165.611 109.852L165.626 111.125H164.369C164.072 111.125 163.814 111.159 163.595 111.227C163.376 111.294 163.197 111.391 163.056 111.516C162.916 111.635 162.811 111.776 162.744 111.938C162.681 112.099 162.65 112.276 162.65 112.469C162.65 112.661 162.694 112.836 162.783 112.992C162.871 113.143 162.999 113.263 163.166 113.352C163.332 113.435 163.528 113.477 163.751 113.477C164.09 113.477 164.384 113.409 164.634 113.273C164.884 113.138 165.077 112.971 165.212 112.773C165.353 112.576 165.426 112.388 165.431 112.211L166.025 113.164C165.942 113.378 165.827 113.599 165.681 113.828C165.541 114.057 165.361 114.273 165.142 114.477C164.923 114.674 164.66 114.839 164.353 114.969C164.046 115.094 163.681 115.156 163.259 115.156C162.723 115.156 162.236 115.049 161.798 114.836C161.366 114.617 161.022 114.318 160.767 113.938C160.517 113.552 160.392 113.115 160.392 112.625C160.392 112.182 160.475 111.789 160.642 111.445C160.809 111.102 161.054 110.812 161.376 110.578C161.705 110.339 162.113 110.159 162.603 110.039C163.093 109.914 163.66 109.852 164.306 109.852H165.611ZM172.806 113.398C173.082 113.398 173.327 113.346 173.541 113.242C173.754 113.133 173.921 112.982 174.041 112.789C174.166 112.591 174.231 112.359 174.236 112.094H176.353C176.348 112.688 176.189 113.216 175.876 113.68C175.564 114.138 175.145 114.5 174.619 114.766C174.093 115.026 173.504 115.156 172.853 115.156C172.197 115.156 171.624 115.047 171.134 114.828C170.65 114.609 170.246 114.307 169.923 113.922C169.6 113.531 169.358 113.078 169.197 112.562C169.035 112.042 168.955 111.484 168.955 110.891V110.664C168.955 110.065 169.035 109.508 169.197 108.992C169.358 108.471 169.6 108.018 169.923 107.633C170.246 107.242 170.65 106.938 171.134 106.719C171.619 106.5 172.186 106.391 172.837 106.391C173.53 106.391 174.137 106.523 174.658 106.789C175.184 107.055 175.595 107.435 175.892 107.93C176.194 108.419 176.348 109 176.353 109.672H174.236C174.231 109.391 174.171 109.135 174.056 108.906C173.947 108.677 173.785 108.495 173.572 108.359C173.363 108.219 173.106 108.148 172.798 108.148C172.47 108.148 172.202 108.219 171.994 108.359C171.785 108.495 171.624 108.682 171.509 108.922C171.395 109.156 171.314 109.424 171.267 109.727C171.225 110.023 171.205 110.336 171.205 110.664V110.891C171.205 111.219 171.225 111.534 171.267 111.836C171.309 112.138 171.387 112.406 171.501 112.641C171.621 112.875 171.785 113.06 171.994 113.195C172.202 113.331 172.473 113.398 172.806 113.398ZM171.962 114.969H173.658L173.572 115.43C173.869 115.482 174.139 115.607 174.384 115.805C174.629 116.003 174.751 116.328 174.751 116.781C174.751 117.057 174.692 117.307 174.572 117.531C174.457 117.755 174.285 117.948 174.056 118.109C173.827 118.276 173.541 118.401 173.197 118.484C172.853 118.573 172.457 118.617 172.009 118.617L171.955 117.367C172.121 117.367 172.272 117.344 172.408 117.297C172.543 117.25 172.65 117.177 172.728 117.078C172.806 116.984 172.845 116.859 172.845 116.703C172.845 116.557 172.806 116.443 172.728 116.359C172.65 116.276 172.528 116.214 172.361 116.172C172.199 116.13 171.986 116.102 171.72 116.086L171.962 114.969ZM182.22 113.094V109.328C182.22 109.057 182.176 108.826 182.087 108.633C181.999 108.435 181.861 108.281 181.673 108.172C181.491 108.062 181.254 108.008 180.962 108.008C180.712 108.008 180.496 108.052 180.314 108.141C180.132 108.224 179.991 108.346 179.892 108.508C179.793 108.664 179.744 108.849 179.744 109.062H177.494C177.494 108.703 177.577 108.362 177.744 108.039C177.91 107.716 178.153 107.432 178.47 107.188C178.788 106.938 179.166 106.742 179.603 106.602C180.046 106.461 180.541 106.391 181.087 106.391C181.744 106.391 182.327 106.5 182.837 106.719C183.348 106.938 183.749 107.266 184.041 107.703C184.337 108.141 184.486 108.688 184.486 109.344V112.961C184.486 113.424 184.514 113.805 184.572 114.102C184.629 114.393 184.712 114.648 184.822 114.867V115H182.548C182.439 114.771 182.356 114.484 182.298 114.141C182.246 113.792 182.22 113.443 182.22 113.094ZM182.517 109.852L182.533 111.125H181.275C180.978 111.125 180.72 111.159 180.501 111.227C180.283 111.294 180.103 111.391 179.962 111.516C179.822 111.635 179.718 111.776 179.65 111.938C179.587 112.099 179.556 112.276 179.556 112.469C179.556 112.661 179.6 112.836 179.689 112.992C179.778 113.143 179.905 113.263 180.072 113.352C180.238 113.435 180.434 113.477 180.658 113.477C180.996 113.477 181.291 113.409 181.541 113.273C181.791 113.138 181.983 112.971 182.119 112.773C182.259 112.576 182.332 112.388 182.337 112.211L182.931 113.164C182.848 113.378 182.733 113.599 182.587 113.828C182.447 114.057 182.267 114.273 182.048 114.477C181.83 114.674 181.567 114.839 181.259 114.969C180.952 115.094 180.587 115.156 180.166 115.156C179.629 115.156 179.142 115.049 178.705 114.836C178.272 114.617 177.929 114.318 177.673 113.938C177.423 113.552 177.298 113.115 177.298 112.625C177.298 112.182 177.382 111.789 177.548 111.445C177.715 111.102 177.96 110.812 178.283 110.578C178.611 110.339 179.02 110.159 179.509 110.039C179.999 109.914 180.567 109.852 181.212 109.852H182.517ZM182.72 103.039L184.017 103.125C184.017 103.505 183.942 103.852 183.791 104.164C183.639 104.471 183.431 104.719 183.166 104.906C182.9 105.089 182.595 105.18 182.251 105.18C182.001 105.18 181.785 105.146 181.603 105.078C181.426 105.01 181.262 104.932 181.111 104.844C180.96 104.75 180.804 104.669 180.642 104.602C180.486 104.534 180.306 104.5 180.103 104.5C179.921 104.5 179.764 104.565 179.634 104.695C179.509 104.826 179.447 105.013 179.447 105.258L178.142 105.188C178.142 104.812 178.218 104.469 178.369 104.156C178.52 103.844 178.728 103.594 178.994 103.406C179.259 103.214 179.561 103.117 179.9 103.117C180.113 103.117 180.309 103.154 180.486 103.227C180.663 103.294 180.832 103.372 180.994 103.461C181.16 103.549 181.33 103.628 181.501 103.695C181.673 103.763 181.856 103.797 182.048 103.797C182.231 103.797 182.387 103.732 182.517 103.602C182.653 103.466 182.72 103.279 182.72 103.039ZM185.861 110.859V110.695C185.861 110.076 185.949 109.505 186.126 108.984C186.304 108.458 186.561 108.003 186.9 107.617C187.238 107.232 187.655 106.932 188.15 106.719C188.645 106.5 189.212 106.391 189.853 106.391C190.494 106.391 191.064 106.5 191.564 106.719C192.064 106.932 192.483 107.232 192.822 107.617C193.166 108.003 193.426 108.458 193.603 108.984C193.78 109.505 193.869 110.076 193.869 110.695V110.859C193.869 111.474 193.78 112.044 193.603 112.57C193.426 113.091 193.166 113.547 192.822 113.938C192.483 114.323 192.067 114.622 191.572 114.836C191.077 115.049 190.509 115.156 189.869 115.156C189.228 115.156 188.658 115.049 188.158 114.836C187.663 114.622 187.244 114.323 186.9 113.938C186.561 113.547 186.304 113.091 186.126 112.57C185.949 112.044 185.861 111.474 185.861 110.859ZM188.111 110.695V110.859C188.111 111.214 188.142 111.544 188.205 111.852C188.267 112.159 188.366 112.43 188.501 112.664C188.642 112.893 188.824 113.073 189.048 113.203C189.272 113.333 189.546 113.398 189.869 113.398C190.181 113.398 190.449 113.333 190.673 113.203C190.897 113.073 191.077 112.893 191.212 112.664C191.348 112.43 191.447 112.159 191.509 111.852C191.577 111.544 191.611 111.214 191.611 110.859V110.695C191.611 110.352 191.577 110.029 191.509 109.727C191.447 109.419 191.345 109.148 191.205 108.914C191.069 108.674 190.889 108.487 190.666 108.352C190.442 108.216 190.171 108.148 189.853 108.148C189.535 108.148 189.264 108.216 189.041 108.352C188.822 108.487 188.642 108.674 188.501 108.914C188.366 109.148 188.267 109.419 188.205 109.727C188.142 110.029 188.111 110.352 188.111 110.695Z" fill="#F8F8F8"/>
<g clip-path="url(#clip1_226_10)">
<path d="M109.153 149.215H90.5907C89.9539 149.215 89.4358 148.696 89.4358 148.058C89.4358 147.42 89.9539 146.901 90.5907 146.901H109.153C109.79 146.901 110.308 147.42 110.308 148.058C110.308 148.696 109.79 149.215 109.153 149.215Z" fill="#E6E7E8"/>
<path d="M123.64 153.132H90.5907C89.9539 153.132 89.4358 152.613 89.4358 151.975C89.4358 151.337 89.9539 150.817 90.5907 150.817H123.64C124.276 150.817 124.795 151.337 124.795 151.975C124.795 152.613 124.276 153.132 123.64 153.132Z" fill="#E6E7E8"/>
<path d="M123.64 157.013H90.5907C89.9539 157.013 89.4358 156.494 89.4358 155.856C89.4358 155.218 89.9539 154.698 90.5907 154.698H123.64C124.276 154.698 124.795 155.218 124.795 155.856C124.795 156.494 124.276 157.013 123.64 157.013Z" fill="#E6E7E8"/>
<path d="M127.14 177.154V176.6C120.753 176.6 115.175 171.372 113.691 164.09L116.098 164.71C114.934 163.605 113.758 161.755 113.029 160.243C112.598 161.866 111.793 163.906 110.859 165.212L113.136 164.131C114.65 171.707 120.468 177.154 127.14 177.154V177.154Z" fill="#3F3D56"/>
<path d="M124.724 155.935C124.724 156.547 124.228 157.044 123.617 157.044H109.229C108.619 157.044 108.122 156.547 108.122 155.935C108.122 155.324 108.619 154.826 109.229 154.826H123.617C124.228 154.826 124.724 155.324 124.724 155.935Z" fill="#0FB268"/>
<path d="M59.4454 169.098C59.4454 169.098 55.6256 168.966 53.4119 171.461C50.8758 174.565 49.1422 186.727 50.4436 187.546L53.9696 212.632L58.9975 211.94L57.7071 181.841L59.4454 169.098V169.098V169.098Z" fill="#0FB268"/>
<path d="M74.7935 164.096L65.6624 163.542L62.6186 167.423C59.9899 167.987 57.6155 168.715 55.9778 169.918C56.3696 181.542 55.5089 196.655 59.0215 199.582L55.9023 221.64C55.9023 221.64 57.1602 220.56 59.2614 220.941C59.9873 221.073 60.8636 222.711 61.7556 222.811C68.6094 223.574 79.7239 222.789 85.2328 211.382L83.0946 194.869L83.648 170.75C81.918 169.38 79.767 168.489 77.2838 167.978L74.7935 164.096V164.096H74.7935Z" fill="#0FB268"/>
<path d="M92.3724 157.349C92.4714 158.31 92.3456 159.214 92.0559 159.939L93.577 169.035L89.2356 169.634L88.16 160.342C87.7286 159.692 87.4211 158.833 87.322 157.872C87.0957 155.676 88.0427 153.779 89.4374 153.634C90.832 153.49 92.146 155.153 92.3724 157.349V157.349H92.3723H92.3724Z" fill="#FFB6B6"/>
<path d="M77.9387 171.445C77.4842 172.117 77.6108 172.872 77.5023 173.78C77.0416 177.632 84.41 189.017 89.5085 190.327C90.1775 190.499 90.5586 191.222 91.2339 191.368H91.2339C93.2344 191.799 95.0969 190.208 94.9889 188.161L93.604 161.904L87.7857 163.893L88.1581 177.524C88.1211 174.7 85.5329 171.825 83.5724 170.629C83.5724 170.629 79.6015 168.987 77.9387 171.445L77.9387 171.445Z" fill="#0FB268"/>
<path d="M71.1754 162.825C75.6175 162.825 79.2185 159.217 79.2185 154.766C79.2185 150.315 75.6175 146.708 71.1754 146.708C66.7333 146.708 63.1323 150.315 63.1323 154.766C63.1323 159.217 66.7333 162.825 71.1754 162.825Z" fill="#FFB6B6"/>
<path d="M78.6674 148.849C78.5982 148.865 79.7261 147.764 79.7742 147.74C80.881 147.185 79.7437 152.605 78.9441 152.453C76.9767 152.078 76.1272 151.335 75.3635 153.19C75.1505 153.706 75.0177 154.288 74.6026 154.657C74.0326 155.158 73.0863 155.117 72.6214 155.716C72.2479 156.198 72.3558 156.908 72.6325 157.451C72.9092 157.997 73.3298 158.46 73.5816 159.018C73.8638 159.644 72.6602 161.637 72.2008 162.757V162.76L72.1981 162.767C72.0761 163.061 71.786 162.214 71.4798 162.13C71.1134 162.029 70.5736 162.896 69.99 162.738C69.9872 162.738 69.9844 162.735 69.9817 162.735C69.4255 162.58 68.8057 162.414 68.1914 162.247H68.1887C66.4593 161.776 66.0221 162.452 65.9391 162.433L64.8655 161.307C64.497 161.039 64.5387 160.171 64.2789 159.938C64.0664 159.747 63.5367 160.188 63.3806 160.005C62.6151 159.106 62.439 158.208 61.9877 156.434C61.5755 154.812 60.7205 149.958 62.4775 149.739C64.135 149.531 62.923 147.218 64.5915 147.304C64.4919 146.883 64.6773 146.431 64.9789 146.121C65.2777 145.807 65.6762 145.613 66.0774 145.447C68.0558 144.637 67.7266 143.942 69.8129 144.413C70.0204 144.122 72.6816 143.363 73.0579 143.46C73.0856 143.465 72.4775 144.649 73.9634 144.413C73.9081 144.754 74.7181 144.014 74.7935 145.245C76.3783 144.292 77.2313 146.573 77.2839 146.908C77.353 147.327 76.7221 147.113 77.1427 147.177C77.3918 147.216 77.8179 147.723 77.7764 147.975C77.9562 147.731 78.1361 147.49 78.3187 147.246C78.3519 147.249 78.3824 147.255 78.4156 147.26C79.2567 147.421 78.2924 150.176 78.327 149.317C78.3907 147.74 79.5058 148.663 78.6674 148.849H78.6674V148.849Z" fill="#2F2E41"/>
<path d="M181.259 147.196C180.962 149.643 180.637 152.087 180.285 154.527C180.142 155.518 179.991 156.522 179.593 157.44C179.321 158.067 178.941 158.64 178.563 159.208C178.116 159.881 177.661 160.561 177.054 161.092C176.447 161.624 175.658 161.997 174.854 161.934C176.987 160.496 178.42 158.064 178.646 155.498C178.753 154.292 178.607 153.08 178.579 151.87C178.551 150.659 178.652 149.407 179.209 148.333C179.766 147.259 180.867 146.399 182.075 146.429L181.259 147.196H181.259V147.196Z" fill="#2F2E41"/>
<path d="M159.648 199.392C157.913 200.802 155.781 201.048 154.885 199.942C153.99 198.836 154.67 196.796 156.405 195.386C157.165 194.769 158 194.375 158.775 194.219L166.202 188.337L168.883 191.888L161.277 197.31C160.965 198.037 160.408 198.775 159.648 199.392H159.648L159.648 199.392L159.648 199.392Z" fill="#A0616A"/>
<path d="M161.051 191.407L172.117 180.886L173.224 180.055C173.224 180.055 179.576 173.854 181.221 173.712C181.918 173.652 182.615 173.826 183.202 174.208C184.15 174.824 184.641 175.838 184.641 176.86C184.641 177.714 184.298 178.572 183.595 179.204L173.464 188.317L169.154 192.193L163.794 197.015L163.249 195.903L161.406 192.135L161.051 191.407V191.407L161.051 191.407H161.051Z" fill="#0FB268"/>
<path d="M184.713 184.287L173.633 187.687C175.488 188.211 176.265 199.536 174.539 199.888C174.539 199.888 192.902 201.197 191.9 199.888C190.679 198.293 192.317 187.692 193.098 187.687L184.713 184.287V184.287Z" fill="#A0616A"/>
<path d="M199.457 242L198.488 230.29C198.488 226.101 198.217 222.316 197.783 218.943C196.042 205.4 191.679 198.458 191.679 198.458H175.353C175.331 198.483 175.309 198.502 175.287 198.527L175.284 198.53C171.432 202.586 169.429 212.785 168.538 218.943C168.115 221.873 167.943 223.888 167.943 223.888L166.347 238.105L167.501 242H177L176.85 241.166L182.963 218.943L183.037 218.671L183.104 218.943L188.771 242H199.457V242V242Z" fill="#2F2E41"/>
<path d="M175.688 177.532L179.138 170.555L182.044 165.486L184.395 163.085H190.828L191.427 165.486L195.02 167.486L196.291 177.486L191.763 199.184C186.373 194.784 175.264 193.565 175.264 193.565L173.464 188.317L172.274 181.994L172.13 181.238L175.688 177.532V177.532V177.532Z" fill="#0FB268"/>
<path d="M175.274 190.153C173.041 190.09 171.263 188.884 171.304 187.46C171.344 186.036 173.187 184.933 175.42 184.997C176.398 185.025 177.288 185.271 177.976 185.659L187.435 186.047L187.159 190.491L177.864 189.637C177.154 189.985 176.252 190.181 175.274 190.153V190.153L175.274 190.153V190.153Z" fill="#A0616A"/>
<path d="M187.371 174.986L196.293 183.862L180.751 185.456L177.14 190.546L198.802 191.266C200.757 191.963 202.839 190.61 202.999 188.538V188.538C203.054 187.838 198.603 170.082 195.909 168.433C192.752 166.501 187.371 174.986 187.371 174.986L189.133 172.047L187.371 174.986V174.986Z" fill="#0FB268"/>
<path d="M193.569 154.377C193.634 150.345 190.424 147.025 186.401 146.96C182.377 146.895 179.063 150.11 178.998 154.141C178.933 158.173 182.142 161.493 186.166 161.558C190.189 161.623 193.504 158.408 193.569 154.377Z" fill="#A0616A"/>
<path d="M202.278 177.005C202.095 177.698 200.673 178.056 200.341 178.946C199.284 179.55 199.857 174.613 199.431 174.288C199.101 174.042 199.013 174.638 198.938 174.125C198.656 172.201 196.81 172.63 195.443 172.32C195.288 172.018 195.169 171.724 195.092 171.438C194.954 170.923 194.323 170.742 193.949 171.122C193.78 170.973 193.659 170.443 193.54 169.914C193.454 169.528 193.368 169.143 193.268 168.899L192.317 166.748L192.624 168.35C192.001 168.125 191.373 168.358 191.011 167.588C190.546 166.598 190.36 165.439 190.698 164.399C191.005 163.457 191.522 161.569 192.106 160.005C191.445 160.485 190.651 160.834 189.729 161.009C190.056 160.388 190.388 159.756 190.526 159.065C190.662 158.375 190.579 157.607 190.142 157.058C189.782 156.606 189.251 156.72 188.802 156.357C188.454 156.074 188.152 155.35 187.942 154.954C188.838 157.94 189.516 161.111 188.376 163.961C187.588 165.935 185.928 167.54 183.935 168.27C184.995 167.51 186.03 166.7 186.824 165.669C187.674 164.563 188.227 163.166 188.058 161.779C187.793 159.603 183.764 152.719 183.268 151.367C183.54 152.689 183.434 153.72 182.721 154.289C182.535 152.37 180.449 152.545 179.312 151.777C179.312 151.777 178.432 146.795 180.496 146.764C181.492 146.751 182.535 144.405 183.44 143.987C184.884 143.318 185.77 143.773 187.372 143.823C188.971 143.87 190.507 144.56 191.484 145.827C191.996 146.49 192.184 145.963 192.953 146.376C193.684 146.767 194.176 146.404 195.003 146.429C196.661 146.473 198.268 147.361 199.198 148.733C200.128 150.108 200.701 149.98 200.333 152.107C200.327 152.132 200.327 152.182 200.333 152.256C200.535 155.605 200.017 158.963 198.692 162.046C198.282 162.994 200.285 163.972 200.283 165.156C200.28 166.531 198.069 167.784 198.274 168.372C198.861 171.203 202.156 170.573 201.379 175.311C201.315 175.697 202.4 176.542 202.278 177.005V177.005Z" fill="#2F2E41"/>
<path d="M182.092 168.336C182.153 168.317 182.213 168.295 182.274 168.27C182.197 168.325 182.122 168.378 182.045 168.433L182.092 168.336H182.092Z" fill="#2F2E41"/>
<path d="M192.355 144.979C191.563 145.097 190.757 143.78 191.207 141.952C192.188 143.455 192.689 145.146 192.768 147.004L192.24 147.168L192.355 144.979V144.979Z" fill="#0FB268"/>
<path d="M196.405 143.274C195.864 145.194 193.117 146.479 192.632 145.811L192.576 146.956L192.237 146.518C193.222 145.051 194.565 143.925 196.405 143.274H196.405V143.274Z" fill="#0FB268"/>
<path d="M136.088 195.057C136.088 194.419 136.606 193.9 137.243 193.9H155.805C156.442 193.9 156.96 194.419 156.96 195.057C156.96 195.695 156.442 196.214 155.805 196.214H137.243C136.606 196.214 136.088 195.695 136.088 195.057Z" fill="#E6E7E8"/>
<path d="M136.088 202.819C136.088 202.181 136.606 201.662 137.243 201.662H155.805C156.442 201.662 156.96 202.181 156.96 202.819C156.96 203.457 156.442 203.976 155.805 203.976H137.243C136.606 203.976 136.088 203.457 136.088 202.819Z" fill="#E6E7E8"/>
<path d="M122.756 200.13C122.12 200.13 121.602 199.611 121.602 198.973C121.602 198.335 122.12 197.816 122.756 197.816H155.805C156.442 197.816 156.96 198.335 156.96 198.973C156.96 199.611 156.442 200.13 155.805 200.13H122.756Z" fill="#E6E7E8"/>
<path d="M120.299 189.056L118.022 187.975C118.956 189.281 119.761 191.32 120.192 192.943C120.921 191.432 122.098 189.582 123.262 188.477L120.855 189.097C122.338 181.815 127.916 176.587 134.304 176.587V176.032C127.632 176.032 121.814 181.479 120.299 189.056Z" fill="#3F3D56"/>
<path d="M130.781 200.151H116.392C115.782 200.151 115.285 199.654 115.285 199.043C115.285 198.431 115.782 197.934 116.392 197.934H130.781C131.391 197.934 131.888 198.431 131.888 199.043C131.888 199.654 131.391 200.151 130.781 200.151Z" fill="#0FB268"/>
<path d="M134.983 177.472C135.367 175.106 133.763 172.876 131.401 172.492C129.039 172.108 126.814 173.715 126.43 176.082C126.047 178.448 127.651 180.678 130.013 181.062C132.375 181.446 134.6 179.839 134.983 177.472Z" fill="#3F3D56"/>
<path d="M107.187 145.355C108.663 145.355 109.859 144.156 109.859 142.677C109.859 141.199 108.663 140 107.187 140C105.711 140 104.515 141.199 104.515 142.677C104.515 144.156 105.711 145.355 107.187 145.355Z" fill="#E6E7E8"/>
<path d="M138.454 191.653C139.93 191.653 141.127 190.454 141.127 188.975C141.127 187.497 139.93 186.298 138.454 186.298C136.979 186.298 135.782 187.497 135.782 188.975C135.782 190.454 136.979 191.653 138.454 191.653Z" fill="#E6E7E8"/>
</g>
</g>
<defs>
<clipPath id="clip0_226_10">
<rect width="271" height="202" rx="16" fill="white"/>
</clipPath>
<clipPath id="clip1_226_10">
<rect width="153" height="102" fill="white" transform="translate(50 140)"/>
</clipPath>
</defs>
</svg>
