<svg width="512" height="512" viewBox="0 0 512 512" fill="none" xmlns="http://www.w3.org/2000/svg">
<rect width="512" height="512" fill="#08070D"/>
<g clip-path="url(#clip0_119_9)">
<path d="M185.349 189H51V324H185.349V189Z" fill="#061734"/>
<path d="M460 189H191.302V324H460V189Z" fill="#061734"/>
<path d="M140.566 251.658L136.315 263.62H152.187V273.873C149.353 276.152 145.952 277.006 141.417 277.006C129.512 277.006 121.576 268.747 121.576 256.215C121.576 244.253 129.796 235.424 141.417 235.424C149.069 235.424 155.588 238.272 156.722 238.842L157.572 239.127L161.824 227.449C156.439 224.316 148.219 222.323 141.983 222.323C130.079 222.323 119.592 228.019 113.073 236.848L107.687 223.462H93.5156L69.4235 290.392H84.4456L89.8309 274.158H111.372C117.324 283.842 128.378 290.392 141.417 290.392C150.203 290.392 158.423 286.69 164.942 280.139L165.225 279.854V251.658H140.566ZM100.602 239.696L107.971 262.196H93.7991L100.602 239.696Z" fill="white"/>
<path d="M228.432 222.892L239.486 252.513H233.25L230.699 245.108H220.212L217.661 252.513H211.426L222.48 222.892H228.432ZM221.629 240.266H229.282L225.314 228.873L221.629 240.266Z" fill="white"/>
<path d="M248.839 222.892L261.594 243.114L261.31 235.139V222.892H267.263V252.513H261.31L248.272 231.721L248.556 238.557V252.228H242.604V222.892H248.839Z" fill="white"/>
<path d="M272.365 252.228V222.892H282.852C285.97 222.892 288.237 223.747 289.938 224.886C294.756 227.734 296.457 232.576 296.457 237.702C296.457 242.829 294.473 247.956 289.938 250.519C287.954 251.658 285.686 252.513 282.852 252.513H272.365V252.228ZM278.317 246.816H281.718C283.702 246.816 285.403 246.532 287.387 245.392C289.938 243.968 290.788 240.551 290.788 237.418C290.788 234 289.938 231.152 287.387 229.443C285.686 228.304 283.419 228.019 281.718 228.019H278.317V246.816Z" fill="white"/>
<path d="M314.03 222.892C318.848 222.892 323.1 226.88 323.1 232.006C323.1 235.709 320.832 239.127 317.431 240.551L324.234 252.513H317.431L311.479 241.12H306.66V252.513H300.425V222.892H314.03ZM306.377 235.709H313.746C315.447 235.709 316.864 233.715 316.864 232.006C316.864 228.873 314.03 228.304 311.762 228.304H306.094V235.709H306.377Z" fill="white"/>
<path d="M342.657 222.892L353.711 252.513H347.475L344.924 245.108H334.437L331.886 252.513H325.651L336.705 222.892H342.657ZM335.854 240.266H343.507L339.539 228.873L335.854 240.266Z" fill="white"/>
<path d="M356.545 252.513V222.892H367.033C370.15 222.892 372.418 223.747 374.119 224.886C378.937 227.734 380.638 232.576 380.638 237.702C380.638 242.829 378.654 247.956 374.119 250.519C372.418 251.658 369.867 252.513 367.033 252.513H356.545ZM362.214 246.816H365.615C367.599 246.816 369.3 246.532 371.284 245.392C374.119 243.968 374.685 240.551 374.685 237.418C374.685 234 373.835 231.152 371.284 229.443C369.584 228.304 367.316 228.019 365.615 228.019H362.214V246.816Z" fill="white"/>
<path d="M404.73 222.892V228.304H389.708V235.139H401.895V240.551H389.708V246.816H405.013V252.228H384.039V222.892H404.73Z" fill="white"/>
<path d="M246.855 260.487V279C246.855 282.133 249.406 284.411 253.091 284.411C256.492 284.411 259.326 282.133 259.326 279V260.487H264.995V278.715C264.995 285.266 260.744 289.823 253.091 289.823C245.438 289.823 241.186 285.266 241.186 278.715V260.487H246.855Z" fill="white"/>
<path d="M291.355 260.487V265.899H282.852V289.823H276.899V265.899H268.396V260.487H291.355Z" fill="white"/>
<path d="M300.708 260.487V290.108H294.756V260.487H300.708Z" fill="white"/>
<path d="M327.068 260.487V265.899H312.046V272.734H324.233V278.146H312.046V284.411H327.351V289.823H306.094V260.487H327.068Z" fill="white"/>
<path d="M345.208 260.487C350.026 260.487 354.278 264.475 354.278 269.601C354.278 273.304 352.01 276.721 348.609 277.861L355.412 289.823H348.609L342.657 278.43H337.839V289.823H331.886V260.487H345.208ZM337.839 273.304H345.208C346.909 273.304 348.326 271.31 348.326 269.601C348.326 266.468 345.491 265.899 343.224 265.899H337.555V273.304H337.839Z" fill="white"/>
<path d="M371.284 260.487C376.103 260.487 380.354 264.475 380.354 269.601C380.354 273.304 378.087 276.721 374.685 277.861L381.488 289.823H374.685L368.733 278.43H363.915V289.823H357.963V260.487H371.284ZM363.915 273.304H371.284C372.985 273.304 374.402 271.31 374.402 269.601C374.402 266.468 371.568 265.899 369.3 265.899H363.631V273.304H363.915Z" fill="white"/>
<path d="M404.73 260.487V265.899H389.708V272.734H401.895V278.146H389.708V284.411H405.013V289.823H384.039V260.487H404.73Z" fill="white"/>
<path d="M431.089 260.487V264.759L415.784 284.696L421.736 284.411H431.089V289.823H408.131V285.835L423.437 265.614H417.484H408.131V260.202H431.089V260.487Z" fill="white"/>
<path d="M235.518 262.481L233.25 266.753C232.683 266.468 229.565 265.044 226.164 265.044C220.496 265.044 216.811 269.316 216.811 275.013C216.811 280.709 220.212 284.981 226.164 284.981C228.432 284.981 230.132 284.411 231.55 283.272V278.43H224.18V273.873H236.651V285.835C233.534 288.968 229.849 290.392 226.164 290.392C216.811 290.392 210.575 283.557 210.575 275.297C210.575 267.323 217.378 260.202 226.164 260.202C228.999 260.202 232.967 261.057 235.518 262.481Z" fill="white"/>
</g>
<defs>
<clipPath id="clip0_119_9">
<rect width="409" height="135" fill="white" transform="translate(51 189)"/>
</clipPath>
</defs>
</svg>
