<svg width="512" height="512" viewBox="0 0 512 512" fill="none" xmlns="http://www.w3.org/2000/svg">
<rect width="512" height="512" fill="#08070D"/>
<path d="M196.562 262.984V274.75H149.781V262.984H196.562ZM179.594 244.469V294.156H166.797V244.469H179.594ZM237.062 232.609V301H223.562V248.172L207.344 253.328V242.688L235.609 232.609H237.062ZM305.969 290.453V301H259.281V292L281.359 268.328C283.578 265.859 285.328 263.688 286.609 261.812C287.891 259.906 288.812 258.203 289.375 256.703C289.969 255.172 290.266 253.719 290.266 252.344C290.266 250.281 289.922 248.516 289.234 247.047C288.547 245.547 287.531 244.391 286.188 243.578C284.875 242.766 283.25 242.359 281.312 242.359C279.25 242.359 277.469 242.859 275.969 243.859C274.5 244.859 273.375 246.25 272.594 248.031C271.844 249.812 271.469 251.828 271.469 254.078H257.922C257.922 250.016 258.891 246.297 260.828 242.922C262.766 239.516 265.5 236.812 269.031 234.812C272.562 232.781 276.75 231.766 281.594 231.766C286.375 231.766 290.406 232.547 293.688 234.109C297 235.641 299.5 237.859 301.188 240.766C302.906 243.641 303.766 247.078 303.766 251.078C303.766 253.328 303.406 255.531 302.688 257.688C301.969 259.812 300.938 261.938 299.594 264.062C298.281 266.156 296.688 268.281 294.812 270.438C292.938 272.594 290.859 274.828 288.578 277.141L276.719 290.453H305.969ZM360.344 260.875V272.688C360.344 277.812 359.797 282.234 358.703 285.953C357.609 289.641 356.031 292.672 353.969 295.047C351.938 297.391 349.516 299.125 346.703 300.25C343.891 301.375 340.766 301.938 337.328 301.938C334.578 301.938 332.016 301.594 329.641 300.906C327.266 300.188 325.125 299.078 323.219 297.578C321.344 296.078 319.719 294.188 318.344 291.906C317 289.594 315.969 286.844 315.25 283.656C314.531 280.469 314.172 276.812 314.172 272.688V260.875C314.172 255.75 314.719 251.359 315.812 247.703C316.938 244.016 318.516 241 320.547 238.656C322.609 236.312 325.047 234.594 327.859 233.5C330.672 232.375 333.797 231.812 337.234 231.812C339.984 231.812 342.531 232.172 344.875 232.891C347.25 233.578 349.391 234.656 351.297 236.125C353.203 237.594 354.828 239.484 356.172 241.797C357.516 244.078 358.547 246.812 359.266 250C359.984 253.156 360.344 256.781 360.344 260.875ZM346.797 274.469V259.047C346.797 256.578 346.656 254.422 346.375 252.578C346.125 250.734 345.734 249.172 345.203 247.891C344.672 246.578 344.016 245.516 343.234 244.703C342.453 243.891 341.562 243.297 340.562 242.922C339.562 242.547 338.453 242.359 337.234 242.359C335.703 242.359 334.344 242.656 333.156 243.25C332 243.844 331.016 244.797 330.203 246.109C329.391 247.391 328.766 249.109 328.328 251.266C327.922 253.391 327.719 255.984 327.719 259.047V274.469C327.719 276.938 327.844 279.109 328.094 280.984C328.375 282.859 328.781 284.469 329.312 285.812C329.875 287.125 330.531 288.203 331.281 289.047C332.062 289.859 332.953 290.453 333.953 290.828C334.984 291.203 336.109 291.391 337.328 291.391C338.828 291.391 340.156 291.094 341.312 290.5C342.5 289.875 343.5 288.906 344.312 287.594C345.156 286.25 345.781 284.5 346.188 282.344C346.594 280.188 346.797 277.562 346.797 274.469Z" fill="#0FB268"/>
</svg>
