<svg width="512" height="512" viewBox="0 0 512 512" fill="none" xmlns="http://www.w3.org/2000/svg">
<rect width="512" height="512" fill="#08070D"/>
<path d="M156.406 262.984V274.75H109.625V262.984H156.406ZM139.438 244.469V294.156H126.641V244.469H139.438ZM190.016 286.75L206.094 232.75H221.75L197.984 301H187.672L190.016 286.75ZM175.203 232.75L191.234 286.75L193.672 301H183.266L159.641 232.75H175.203ZM283.531 265.281V268.516C283.531 273.703 282.828 278.359 281.422 282.484C280.016 286.609 278.031 290.125 275.469 293.031C272.906 295.906 269.844 298.109 266.281 299.641C262.75 301.172 258.828 301.938 254.516 301.938C250.234 301.938 246.312 301.172 242.75 299.641C239.219 298.109 236.156 295.906 233.562 293.031C230.969 290.125 228.953 286.609 227.516 282.484C226.109 278.359 225.406 273.703 225.406 268.516V265.281C225.406 260.062 226.109 255.406 227.516 251.312C228.922 247.188 230.906 243.672 233.469 240.766C236.062 237.859 239.125 235.641 242.656 234.109C246.219 232.578 250.141 231.812 254.422 231.812C258.734 231.812 262.656 232.578 266.188 234.109C269.75 235.641 272.812 237.859 275.375 240.766C277.969 243.672 279.969 247.188 281.375 251.312C282.812 255.406 283.531 260.062 283.531 265.281ZM269.328 268.516V265.188C269.328 261.562 269 258.375 268.344 255.625C267.688 252.875 266.719 250.562 265.438 248.688C264.156 246.812 262.594 245.406 260.75 244.469C258.906 243.5 256.797 243.016 254.422 243.016C252.047 243.016 249.938 243.5 248.094 244.469C246.281 245.406 244.734 246.812 243.453 248.688C242.203 250.562 241.25 252.875 240.594 255.625C239.938 258.375 239.609 261.562 239.609 265.188V268.516C239.609 272.109 239.938 275.297 240.594 278.078C241.25 280.828 242.219 283.156 243.5 285.062C244.781 286.938 246.344 288.359 248.188 289.328C250.031 290.297 252.141 290.781 254.516 290.781C256.891 290.781 259 290.297 260.844 289.328C262.688 288.359 264.234 286.938 265.484 285.062C266.734 283.156 267.688 280.828 268.344 278.078C269 275.297 269.328 272.109 269.328 268.516ZM333.219 278.359H347.234C346.953 282.953 345.688 287.031 343.438 290.594C341.219 294.156 338.109 296.938 334.109 298.938C330.141 300.938 325.359 301.938 319.766 301.938C315.391 301.938 311.469 301.188 308 299.688C304.531 298.156 301.562 295.969 299.094 293.125C296.656 290.281 294.797 286.844 293.516 282.812C292.234 278.781 291.594 274.266 291.594 269.266V264.531C291.594 259.531 292.25 255.016 293.562 250.984C294.906 246.922 296.812 243.469 299.281 240.625C301.781 237.781 304.766 235.594 308.234 234.062C311.703 232.531 315.578 231.766 319.859 231.766C325.547 231.766 330.344 232.797 334.25 234.859C338.188 236.922 341.234 239.766 343.391 243.391C345.578 247.016 346.891 251.141 347.328 255.766H333.266C333.109 253.016 332.562 250.688 331.625 248.781C330.688 246.844 329.266 245.391 327.359 244.422C325.484 243.422 322.984 242.922 319.859 242.922C317.516 242.922 315.469 243.359 313.719 244.234C311.969 245.109 310.5 246.438 309.312 248.219C308.125 250 307.234 252.25 306.641 254.969C306.078 257.656 305.797 260.812 305.797 264.438V269.266C305.797 272.797 306.062 275.906 306.594 278.594C307.125 281.25 307.938 283.5 309.031 285.344C310.156 287.156 311.594 288.531 313.344 289.469C315.125 290.375 317.266 290.828 319.766 290.828C322.703 290.828 325.125 290.359 327.031 289.422C328.938 288.484 330.391 287.094 331.391 285.25C332.422 283.406 333.031 281.109 333.219 278.359ZM402.266 290.031V301H365.938V290.031H402.266ZM370.531 232.75V301H356.469V232.75H370.531ZM397.531 260.547V271.234H365.938V260.547H397.531ZM402.219 232.75V243.766H365.938V232.75H402.219ZM384.078 214.281L398.234 227.312V227.875H387.5L380.141 221.031L372.875 227.875H362.328V227.172L376.25 214.281H384.078Z" fill="#0FB268"/>
</svg>
