<svg width="367" height="238" fill="none" xmlns="http://www.w3.org/2000/svg"><g clip-path="url(#a)"><path d="M141.891 22.044H97.365a2.772 2.772 0 0 1-2.77-2.768 2.772 2.772 0 0 1 2.77-2.768h44.526a2.772 2.772 0 0 1 2.77 2.768 2.772 2.772 0 0 1-2.77 2.768ZM176.639 31.413H97.365a2.772 2.772 0 0 1-2.77-2.768 2.772 2.772 0 0 1 2.77-2.768h79.274a2.772 2.772 0 0 1 2.77 2.768 2.772 2.772 0 0 1-2.77 2.768ZM176.639 40.697H97.365a2.772 2.772 0 0 1-2.77-2.768 2.772 2.772 0 0 1 2.77-2.768h79.274a2.772 2.772 0 0 1 2.77 2.768 2.772 2.772 0 0 1-2.77 2.768Z" fill="#E6E7E8"/><path d="M185.036 88.88v-1.327c-15.322 0-28.702-12.506-32.26-29.927l5.773 1.484c-2.792-2.643-5.613-7.068-7.363-10.685-1.033 3.883-2.964 8.762-5.204 11.886l5.462-2.586c3.632 18.124 17.588 31.154 33.592 31.154Z" fill="#3F3D56"/><path d="M179.24 38.12a2.657 2.657 0 0 1-2.655 2.653h-34.513a2.657 2.657 0 0 1-2.655-2.653 2.657 2.657 0 0 1 2.655-2.653h34.513a2.657 2.657 0 0 1 2.655 2.653Z" fill="#0FB268"/><path d="M23.83 185.89c-.525-1.828-1.425-3.388-2.496-4.5l-3.892-17.727-8.483 2.077 4.861 17.758c-.32 1.503-.255 3.297.27 5.125 1.2 4.176 4.354 6.949 7.043 6.195 2.69-.755 3.898-4.752 2.697-8.928Z" fill="#FFB6B6"/><path d="M22.657 69.606s-9.163-.316-14.473 5.653c-6.083 7.425-10.241 36.519-7.12 38.478l8.458 60.009 12.06-1.656-3.095-72.001 4.17-30.483Z" fill="#0FB268"/><path d="m84.513 170.757-2.196 73.241H50.79l-1.274-28.232-5.602 28.232h-33.79l4.215-48.532 4.354-10.207 2.947-6.917 62.873-7.585Z" fill="#2F2E41"/><path d="m59.472 57.642-21.903-1.326-7.301 9.285c-6.306 1.349-12 3.09-15.93 5.968.94 27.805-1.124 63.959 7.302 70.961l-7.482 52.765s3.017-2.583 8.057-1.671c1.741.315 3.843 4.235 5.983 4.472 16.44 1.825 43.1-.052 56.314-27.339l-5.128-39.501 1.327-57.697c-4.15-3.278-9.31-5.408-15.266-6.632l-5.973-9.285Z" fill="#0FB268"/><path d="M101.638 41.501c.238 2.3-.064 4.462-.759 6.195l3.649 21.76-10.414 1.433-2.58-22.228c-1.035-1.556-1.772-3.61-2.01-5.91-.543-5.252 1.729-9.79 5.074-10.135 3.346-.346 6.497 3.633 7.04 8.885Z" fill="#FFB6B6"/><path d="M67.017 75.221c-1.09 1.608-.787 3.415-1.047 5.585-1.105 9.216 16.57 36.449 28.799 39.585 1.605.411 2.519 2.141 4.139 2.489 4.798 1.03 9.266-2.775 9.007-7.673l-3.322-62.809-13.957 4.757.894 32.609c-.09-6.756-6.297-13.634-11-16.495 0 0-9.525-3.928-13.513 1.952Z" fill="#0FB268"/><path d="M50.793 54.6c10.656 0 19.293-8.63 19.293-19.278 0-10.646-8.637-19.277-19.293-19.277-10.655 0-19.293 8.63-19.293 19.277S40.139 54.6 50.793 54.6Z" fill="#FFB6B6"/><path d="M68.764 21.167c-.166.04 2.54-2.595 2.655-2.653 2.655-1.326-.073 11.64-1.991 11.275-4.72-.896-6.757-2.673-8.589 1.764-.51 1.233-.83 2.626-1.825 3.508-1.367 1.2-3.637 1.1-4.752 2.533-.896 1.154-.638 2.852.026 4.152.664 1.306 1.673 2.414 2.277 3.747.677 1.499-2.21 6.267-3.312 8.946v.007l-.007.016c-.293.702-.988-1.322-1.723-1.524-.879-.242-2.174 1.832-3.573 1.455-.007 0-.014-.007-.02-.007-1.334-.371-2.821-.77-4.295-1.167h-.006c-4.148-1.127-5.197.49-5.396.444l-2.575-2.692c-.884-.643-.784-2.719-1.408-3.276-.51-.456-1.78.597-2.154.159-1.836-2.149-2.259-4.298-3.341-8.542-.99-3.88-3.04-15.492 1.175-16.016 3.975-.497 1.068-6.028 5.07-5.823-.239-1.008.206-2.089.93-2.832.716-.749 1.672-1.213 2.635-1.611 4.745-1.937 3.955-3.601 8.96-2.474.498-.696 6.88-2.512 7.784-2.28.066.014-1.392 2.844 2.172 2.28-.133.816 1.81-.953 1.99 1.99 3.802-2.28 5.848 3.176 5.974 3.979.166 1.001-1.347.49-.338.643.597.093 1.62 1.307 1.52 1.91.431-.584.863-1.16 1.3-1.744.08.006.153.02.233.033 2.018.385-.295 6.975-.212 4.92.152-3.773 2.827-1.564.816-1.12ZM314.851 17.215a783.584 783.584 0 0 1-2.337 17.537c-.343 2.37-.706 4.771-1.66 6.968-.652 1.5-1.564 2.87-2.472 4.23-1.072 1.607-2.162 3.236-3.619 4.506-1.456 1.271-3.348 2.163-5.276 2.014 5.115-3.44 8.552-9.259 9.096-15.396.255-2.885-.095-5.784-.163-8.68-.067-2.895.176-5.89 1.513-8.46 1.336-2.57 3.977-4.627 6.875-4.554l-1.957 1.835Z" fill="#2F2E41"/><path d="M263.012 142.075c-4.162 3.373-9.277 3.962-11.425 1.315-2.148-2.646-.515-7.526 3.646-10.898 1.822-1.477 3.827-2.42 5.685-2.791l17.815-14.071 6.43 8.494-18.244 12.969c-.748 1.74-2.085 3.505-3.907 4.982Z" fill="#A0616A"/><path d="m266.377 122.973 26.545-25.166 2.655-1.99s15.237-14.833 19.183-15.173a7.537 7.537 0 0 1 4.75 1.187 7.522 7.522 0 0 1 3.452 6.344 7.49 7.49 0 0 1-2.509 5.608l-24.301 21.798-10.338 9.273-12.857 11.535-1.308-2.66-4.419-9.014-.853-1.742Z" fill="#0FB268"/><path d="m323.136 105.942-26.578 8.133c4.45 1.253 6.313 28.345 2.172 29.186 0 0 44.048 3.131 41.644 0-2.93-3.816 1-29.175 2.873-29.186l-20.111-8.133Z" fill="#A0616A"/><path d="m358.501 244-2.323-28.013c0-10.021-.65-19.073-1.692-27.144-4.175-32.397-14.642-49.003-14.642-49.003h-39.16c-.053.06-.106.106-.159.166l-.007.006c-9.239 9.703-14.044 34.101-16.181 48.831-1.016 7.01-1.427 11.831-1.427 11.831l-3.83 34.008 2.768 9.318h22.785l-.358-1.996 14.662-53.161.179-.65.159.65L332.868 244h25.633Z" fill="#2F2E41"/><path d="m301.487 89.782 8.275-16.69 6.972-12.127 5.638-5.741h15.431l1.437 5.742 8.619 4.784 3.049 23.923-10.862 51.904c-12.929-10.526-39.576-13.441-39.576-13.441l-4.318-12.555-2.854-15.124-.345-1.808 8.534-8.867Z" fill="#0FB268"/><path d="M300.494 119.974c-5.356-.152-9.62-3.036-9.524-6.442.097-3.406 4.518-6.044 9.874-5.892 2.345.067 4.48.657 6.132 1.585l22.689.928-.662 10.629-22.297-2.043c-1.702.833-3.867 1.302-6.212 1.235Z" fill="#A0616A"/><path d="m329.51 83.693 21.403 21.231-37.28 3.815-8.664 12.176 51.962 1.721c4.688 1.669 9.682-1.569 10.068-6.526.13-1.674-10.545-44.15-17.008-48.093-7.574-4.622-20.481 15.676-20.481 15.676l4.228-7.032-4.228 7.032Z" fill="#0FB268"/><path d="M344.377 34.391c.156-9.643-7.542-17.587-17.194-17.743-9.651-.155-17.601 7.537-17.757 17.18-.156 9.644 7.542 17.588 17.194 17.743 9.651.156 17.601-7.536 17.757-17.18Z" fill="#A0616A"/><path d="M365.268 88.522c-.438 1.658-3.85 2.513-4.647 4.642-2.535 1.446-1.161-10.365-2.183-11.141-.79-.59-1.002.835-1.182-.391-.677-4.603-5.104-3.575-8.382-4.318a10.84 10.84 0 0 1-.843-2.109c-.332-1.233-1.846-1.664-2.742-.756-.404-.358-.696-1.625-.982-2.891-.206-.922-.411-1.844-.65-2.428l-2.284-5.146.737 3.833c-1.493-.537-3 .02-3.869-1.823-1.115-2.368-1.56-5.14-.75-7.627.736-2.255 1.978-6.771 3.378-10.512-1.586 1.148-3.491 1.983-5.701 2.401.783-1.485 1.579-2.997 1.911-4.649.325-1.651.126-3.488-.922-4.801-.863-1.081-2.138-.81-3.213-1.678-.836-.676-1.56-2.407-2.064-3.356 2.15 7.143 3.777 14.73 1.042 21.547-1.892 4.722-5.874 8.562-10.653 10.306 2.542-1.817 5.025-3.754 6.93-6.22 2.037-2.647 3.365-5.99 2.96-9.305-.637-5.206-10.301-21.673-11.489-24.91.65 3.164.398 5.631-1.314 6.99-.445-4.589-5.45-4.17-8.178-6.008 0 0-2.11-11.917 2.841-11.99 2.39-.034 4.892-5.644 7.062-6.646 3.465-1.598 5.589-.51 9.432-.39 3.836.112 7.52 1.763 9.863 4.794 1.228 1.585 1.679.325 3.524 1.313 1.752.935 2.934.066 4.918.126 3.976.106 7.832 2.229 10.062 5.511 2.23 3.29 3.604 2.985 2.722 8.071-.014.06-.014.18 0 .358.484 8.012-.757 16.043-3.936 23.418-.983 2.268 3.822 4.608 3.816 7.44-.007 3.29-5.31 6.288-4.819 7.693 1.408 6.772 9.313 5.266 7.447 16.6-.152.922 2.45 2.945 2.158 4.052ZM316.847 67.785c.146-.047.292-.1.438-.16l-.55.392.112-.232Z" fill="#2F2E41"/><path d="M341.466 11.911c-1.901.282-3.832-2.87-2.753-7.24 2.352 3.594 3.555 7.64 3.744 12.084l-1.268.393.277-5.237Z" fill="#0FB268"/><path d="M351.18 7.831c-1.297 4.594-7.886 7.668-9.05 6.07l-.133 2.739-.815-1.047c2.363-3.511 5.584-6.205 9.998-7.762Z" fill="#0FB268"/><path d="M206.498 131.705a2.773 2.773 0 0 1 2.771-2.768h44.526a2.773 2.773 0 0 1 2.77 2.768 2.773 2.773 0 0 1-2.77 2.768h-44.526a2.773 2.773 0 0 1-2.771-2.768ZM206.498 150.274a2.773 2.773 0 0 1 2.771-2.768h44.526a2.773 2.773 0 0 1 2.77 2.768 2.773 2.773 0 0 1-2.77 2.768h-44.526a2.773 2.773 0 0 1-2.771-2.768ZM174.52 143.842a2.773 2.773 0 0 1-2.77-2.768 2.772 2.772 0 0 1 2.77-2.768h79.274a2.772 2.772 0 0 1 2.771 2.768 2.773 2.773 0 0 1-2.771 2.768H174.52Z" fill="#E6E7E8"/><path d="m168.627 117.349-5.462-2.586c2.24 3.125 4.171 8.004 5.204 11.886 1.75-3.616 4.571-8.041 7.363-10.685l-5.773 1.484c3.557-17.42 16.938-29.927 32.26-29.927v-1.326c-16.004 0-29.96 13.03-33.592 31.154Z" fill="#3F3D56"/><path d="M193.768 143.892h-34.513a2.657 2.657 0 0 1-2.655-2.652 2.657 2.657 0 0 1 2.655-2.653h34.513a2.657 2.657 0 0 1 2.655 2.653 2.657 2.657 0 0 1-2.655 2.652Z" fill="#0FB268"/><path d="M203.849 89.64c.919-5.66-2.928-10.995-8.594-11.913-5.665-.919-11.003 2.926-11.922 8.586-.92 5.661 2.928 10.995 8.593 11.913 5.665.919 11.003-2.925 11.923-8.586Z" fill="#3F3D56"/><path d="M137.174 12.81c3.54 0 6.41-2.868 6.41-6.405A6.407 6.407 0 0 0 137.174 0a6.407 6.407 0 0 0-6.41 6.405 6.407 6.407 0 0 0 6.41 6.404ZM212.175 123.561c3.54 0 6.41-2.867 6.41-6.404a6.408 6.408 0 0 0-6.41-6.405 6.408 6.408 0 0 0-6.41 6.405 6.407 6.407 0 0 0 6.41 6.404Z" fill="#E6E7E8"/></g><defs><clipPath id="a"><path fill="#fff" d="M0 0h367v244H0z"/></clipPath></defs></svg>