<svg width="148" height="49" viewBox="0 0 148 49" fill="none" xmlns="http://www.w3.org/2000/svg">
<g clip-path="url(#clip0_1_65)">
<path d="M48.6121 0.0404053H0V48.9677H48.6121V0.0404053Z" fill="#061734"/>
<path d="M147.99 0.0404053H50.7658V48.9677H147.99V0.0404053Z" fill="#061734"/>
<path d="M32.408 22.7493L30.8697 27.0846H36.6129V30.8006C35.5873 31.6264 34.3566 31.936 32.7157 31.936C28.4083 31.936 25.5367 28.9426 25.5367 24.4008C25.5367 20.0655 28.5109 16.8656 32.7157 16.8656C35.4848 16.8656 37.8436 17.8978 38.2538 18.1043L38.5615 18.2075L40.0998 13.9754C38.1512 12.84 35.1771 12.1174 32.9208 12.1174C28.6134 12.1174 24.8188 14.1818 22.46 17.3817L20.5114 12.5303H15.3836L6.66621 36.7875H12.1017L14.0503 30.9038H21.8447C23.9984 34.4134 27.9981 36.7875 32.7157 36.7875C35.895 36.7875 38.8691 35.4456 41.228 33.0715L41.3305 32.9683V22.7493H32.408ZM17.9475 18.4139L20.614 26.5685H15.4861L17.9475 18.4139Z" fill="white"/>
<path d="M64.2007 12.3238L68.2005 23.0589H65.9442L65.0212 20.3751H61.2266L60.3036 23.0589H58.0473L62.047 12.3238H64.2007ZM61.7394 18.6204H64.5084L63.0726 14.4915L61.7394 18.6204Z" fill="white"/>
<path d="M71.5849 12.3238L76.1999 19.6526L76.0974 16.7624V12.3238H78.2511V23.0589H76.0974L71.3798 15.5237L71.4823 18.001V22.9557H69.3286V12.3238H71.5849Z" fill="white"/>
<path d="M80.0971 22.9557V12.3238H83.8917C85.0199 12.3238 85.8403 12.6335 86.4557 13.0464C88.1991 14.0786 88.8145 15.8334 88.8145 17.6914C88.8145 19.5494 88.0966 21.4074 86.4557 22.3364C85.7378 22.7493 84.9173 23.0589 83.8917 23.0589H80.0971V22.9557ZM82.2508 20.9945H83.4815C84.1994 20.9945 84.8147 20.8913 85.5326 20.4784C86.4557 19.9623 86.7633 18.7236 86.7633 17.5881C86.7633 16.3495 86.4557 15.3173 85.5326 14.6979C84.9173 14.285 84.0968 14.1818 83.4815 14.1818H82.2508V20.9945Z" fill="white"/>
<path d="M95.173 12.3238C96.9165 12.3238 98.4548 13.7689 98.4548 15.6269C98.4548 16.9688 97.6344 18.2075 96.4037 18.7236L98.865 23.0589H96.4037L94.25 18.93H92.5065V23.0589H90.2502V12.3238H95.173ZM92.4039 16.9688H95.0704C95.6858 16.9688 96.1986 16.2463 96.1986 15.6269C96.1986 14.4915 95.173 14.285 94.3525 14.285H92.3014V16.9688H92.4039Z" fill="white"/>
<path d="M105.531 12.3238L109.531 23.0589H107.275L106.352 20.3751H102.557L101.634 23.0589H99.3778L103.378 12.3238H105.531ZM103.07 18.6204H105.839L104.403 14.4915L103.07 18.6204Z" fill="white"/>
<path d="M110.557 23.0589V12.3238H114.351C115.479 12.3238 116.3 12.6335 116.915 13.0464C118.659 14.0786 119.274 15.8334 119.274 17.6914C119.274 19.5494 118.556 21.4074 116.915 22.3364C116.3 22.7493 115.377 23.0589 114.351 23.0589H110.557ZM112.608 20.9945H113.838C114.556 20.9945 115.172 20.8913 115.89 20.4784C116.915 19.9623 117.12 18.7236 117.12 17.5881C117.12 16.3495 116.813 15.3173 115.89 14.6979C115.274 14.285 114.454 14.1818 113.838 14.1818H112.608V20.9945Z" fill="white"/>
<path d="M127.991 12.3238V14.285H122.556V16.7624H126.966V18.7236H122.556V20.9945H128.094V22.9557H120.505V12.3238H127.991Z" fill="white"/>
<path d="M70.867 25.9491V32.6586C70.867 33.794 71.79 34.6198 73.1232 34.6198C74.3539 34.6198 75.3795 33.794 75.3795 32.6586V25.9491H77.4306V32.5553C77.4306 34.9294 75.8923 36.581 73.1232 36.581C70.3542 36.581 68.8158 34.9294 68.8158 32.5553V25.9491H70.867Z" fill="white"/>
<path d="M86.9684 25.9491V27.9103H83.8917V36.581H81.738V27.9103H78.6613V25.9491H86.9684Z" fill="white"/>
<path d="M90.3528 25.9491V36.6842H88.1991V25.9491H90.3528Z" fill="white"/>
<path d="M99.8906 25.9491V27.9103H94.4551V30.3877H98.865V32.3489H94.4551V34.6198H99.9932V36.581H92.3014V25.9491H99.8906Z" fill="white"/>
<path d="M106.454 25.9491C108.198 25.9491 109.736 27.3942 109.736 29.2522C109.736 30.5941 108.916 31.8328 107.685 32.2457L110.146 36.581H107.685L105.531 32.4521H103.788V36.581H101.634V25.9491H106.454ZM103.788 30.5941H106.454C107.07 30.5941 107.582 29.8716 107.582 29.2522C107.582 28.1168 106.557 27.9103 105.736 27.9103H103.685V30.5941H103.788Z" fill="white"/>
<path d="M115.89 25.9491C117.633 25.9491 119.171 27.3942 119.171 29.2522C119.171 30.5941 118.351 31.8328 117.12 32.2457L119.582 36.581H117.12L114.967 32.4521H113.223V36.581H111.069V25.9491H115.89ZM113.223 30.5941H115.89C116.505 30.5941 117.018 29.8716 117.018 29.2522C117.018 28.1168 115.992 27.9103 115.172 27.9103H113.12V30.5941H113.223Z" fill="white"/>
<path d="M127.991 25.9491V27.9103H122.556V30.3877H126.966V32.3489H122.556V34.6198H128.094V36.581H120.505V25.9491H127.991Z" fill="white"/>
<path d="M137.529 25.9491V27.4975L131.991 34.723L134.145 34.6198H137.529V36.581H129.222V35.1359L134.76 27.8071H132.606H129.222V25.8459H137.529V25.9491Z" fill="white"/>
<path d="M66.7647 26.6717L65.9442 28.22C65.7391 28.1168 64.611 27.6007 63.3803 27.6007C61.3292 27.6007 59.9959 29.149 59.9959 31.2135C59.9959 33.2779 61.2266 34.8262 63.3803 34.8262C64.2008 34.8262 64.8161 34.6198 65.3289 34.2069V32.4521H62.6624V30.8006H67.1749V35.1359C66.0468 36.2713 64.7135 36.7875 63.3803 36.7875C59.9959 36.7875 57.7397 34.3101 57.7397 31.3167C57.7397 28.4265 60.201 25.8459 63.3803 25.8459C64.4059 25.8459 65.8417 26.1556 66.7647 26.6717Z" fill="white"/>
</g>
<defs>
<clipPath id="clip0_1_65">
<rect width="147.99" height="48.9273" fill="white" transform="translate(0 0.0404053)"/>
</clipPath>
</defs>
</svg>
